<?xml version="1.0" standalone="no"?>
 <!DOCTYPE svg PUBLIC "-//W3C//DTD SVG 1.1//EN" 
 "http://www.w3.org/Graphics/SVG/1.1/DTD/svg11.dtd"> 
<svg xmlns="http://www.w3.org/2000/svg" version="1.1" 
    width="29.7002cm" height="21.0007cm" viewBox="0 0 116930 82680 ">
<title>SVG Picture created as lna.svg date 2017/09/06 21:52:20 </title>
  <desc>Picture generated by Eeschema-SVG </desc>
<g style="fill:#000000; fill-opacity:1;stroke:#000000; stroke-opacity:1;
stroke-linecap:round; stroke-linejoin:round; "
 transform="translate(0 0) scale(1 1)">
</g>
<g style="fill:#000000; fill-opacity:0.0; 
stroke:#000000; stroke-width:-10; stroke-opacity:1; 
stroke-linecap:round; stroke-linejoin:round;">
</g>
<g style="fill:#000000; fill-opacity:0.0; 
stroke:#000000; stroke-width:100; stroke-opacity:1; 
stroke-linecap:round; stroke-linejoin:round;">
</g>
<g style="fill:#000000; fill-opacity:0.0; 
stroke:#000000; stroke-width:60; stroke-opacity:1; 
stroke-linecap:round; stroke-linejoin:round;">
<rect x="69690" y="65360" width="42520" height="12600" rx="0" />
</g>
<g style="fill:#000000; fill-opacity:0.0; 
stroke:#000000; stroke-width:100; stroke-opacity:1; 
stroke-linecap:round; stroke-linejoin:round;">
</g>
<g style="fill:#000000; fill-opacity:0.0; 
stroke:#000000; stroke-width:60; stroke-opacity:1; 
stroke-linecap:round; stroke-linejoin:round;">
<rect x="3940" y="3940" width="109050" height="74800" rx="0" />
</g>
<g style="fill:#000000; fill-opacity:0.0; 
stroke:#000000; stroke-width:100; stroke-opacity:1; 
stroke-linecap:round; stroke-linejoin:round;">
</g>
<g style="fill:#000000; fill-opacity:0.0; 
stroke:#000000; stroke-width:60; stroke-opacity:1; 
stroke-linecap:round; stroke-linejoin:round;">
<rect x="4720" y="4720" width="107490" height="73240" rx="0" />
</g>
<g style="fill:#000000; fill-opacity:0.0; 
stroke:#000000; stroke-width:100; stroke-opacity:1; 
stroke-linecap:round; stroke-linejoin:round;">
</g>
<g style="fill:#000000; fill-opacity:0.0; 
stroke:#000000; stroke-width:60; stroke-opacity:1; 
stroke-linecap:round; stroke-linejoin:round;">
<path d="M23620 4720
L23620 3940
" />
</g>
<g style="fill:#000000; fill-opacity:0.0; 
stroke:#000000; stroke-width:100; stroke-opacity:1; 
stroke-linecap:round; stroke-linejoin:round;">
</g>
<g style="fill:#000000; fill-opacity:0.0; 
stroke:#000000; stroke-width:60; stroke-opacity:1; 
stroke-linecap:round; stroke-linejoin:round;">
<path d="M43310 4720
L43310 3940
" />
</g>
<g style="fill:#000000; fill-opacity:0.0; 
stroke:#000000; stroke-width:100; stroke-opacity:1; 
stroke-linecap:round; stroke-linejoin:round;">
</g>
<g style="fill:#000000; fill-opacity:0.0; 
stroke:#000000; stroke-width:60; stroke-opacity:1; 
stroke-linecap:round; stroke-linejoin:round;">
<path d="M62990 4720
L62990 3940
" />
</g>
<g style="fill:#000000; fill-opacity:0.0; 
stroke:#000000; stroke-width:100; stroke-opacity:1; 
stroke-linecap:round; stroke-linejoin:round;">
</g>
<g style="fill:#000000; fill-opacity:0.0; 
stroke:#000000; stroke-width:60; stroke-opacity:1; 
stroke-linecap:round; stroke-linejoin:round;">
<path d="M82680 4720
L82680 3940
" />
</g>
<g style="fill:#000000; fill-opacity:0.0; 
stroke:#000000; stroke-width:100; stroke-opacity:1; 
stroke-linecap:round; stroke-linejoin:round;">
</g>
<g style="fill:#000000; fill-opacity:0.0; 
stroke:#000000; stroke-width:60; stroke-opacity:1; 
stroke-linecap:round; stroke-linejoin:round;">
<path d="M102360 4720
L102360 3940
" />
</g>
<g style="fill:#000000; fill-opacity:0.0; 
stroke:#000000; stroke-width:100; stroke-opacity:1; 
stroke-linecap:round; stroke-linejoin:round;">
</g>
<g style="fill:#000000; fill-opacity:0.0; 
stroke:#000000; stroke-width:60; stroke-opacity:1; 
stroke-linecap:round; stroke-linejoin:round;">
<path d="M14170 4560
L13880 4560
" />
<path d="M14020 4560
L14020 4050
L13970 4120
L13930 4170
L13880 4190
" />
</g>
<g style="fill:#000000; fill-opacity:0.0; 
stroke:#000000; stroke-width:100; stroke-opacity:1; 
stroke-linecap:round; stroke-linejoin:round;">
</g>
<g style="fill:#000000; fill-opacity:0.0; 
stroke:#000000; stroke-width:60; stroke-opacity:1; 
stroke-linecap:round; stroke-linejoin:round;">
<path d="M33560 4090
L33580 4070
L33630 4050
L33750 4050
L33800 4070
L33820 4090
L33850 4140
L33850 4190
L33820 4260
L33530 4560
L33850 4560
" />
</g>
<g style="fill:#000000; fill-opacity:0.0; 
stroke:#000000; stroke-width:100; stroke-opacity:1; 
stroke-linecap:round; stroke-linejoin:round;">
</g>
<g style="fill:#000000; fill-opacity:0.0; 
stroke:#000000; stroke-width:60; stroke-opacity:1; 
stroke-linecap:round; stroke-linejoin:round;">
<path d="M53220 4050
L53540 4050
L53370 4240
L53440 4240
L53490 4260
L53510 4290
L53540 4340
L53540 4460
L53510 4510
L53490 4530
L53440 4560
L53300 4560
L53250 4530
L53220 4510
" />
</g>
<g style="fill:#000000; fill-opacity:0.0; 
stroke:#000000; stroke-width:100; stroke-opacity:1; 
stroke-linecap:round; stroke-linejoin:round;">
</g>
<g style="fill:#000000; fill-opacity:0.0; 
stroke:#000000; stroke-width:60; stroke-opacity:1; 
stroke-linecap:round; stroke-linejoin:round;">
<path d="M73170 4220
L73170 4560
" />
<path d="M73050 4020
L72930 4390
L73240 4390
" />
</g>
<g style="fill:#000000; fill-opacity:0.0; 
stroke:#000000; stroke-width:100; stroke-opacity:1; 
stroke-linecap:round; stroke-linejoin:round;">
</g>
<g style="fill:#000000; fill-opacity:0.0; 
stroke:#000000; stroke-width:60; stroke-opacity:1; 
stroke-linecap:round; stroke-linejoin:round;">
<path d="M92880 4050
L92640 4050
L92620 4290
L92640 4260
L92690 4240
L92810 4240
L92860 4260
L92880 4290
L92910 4340
L92910 4460
L92880 4510
L92860 4530
L92810 4560
L92690 4560
L92640 4530
L92620 4510
" />
</g>
<g style="fill:#000000; fill-opacity:0.0; 
stroke:#000000; stroke-width:100; stroke-opacity:1; 
stroke-linecap:round; stroke-linejoin:round;">
</g>
<g style="fill:#000000; fill-opacity:0.0; 
stroke:#000000; stroke-width:60; stroke-opacity:1; 
stroke-linecap:round; stroke-linejoin:round;">
<path d="M112540 4050
L112440 4050
L112390 4070
L112370 4090
L112320 4170
L112300 4260
L112300 4460
L112320 4510
L112350 4530
L112390 4560
L112490 4560
L112540 4530
L112560 4510
L112590 4460
L112590 4340
L112560 4290
L112540 4260
L112490 4240
L112390 4240
L112350 4260
L112320 4290
L112300 4340
" />
</g>
<g style="fill:#000000; fill-opacity:0.0; 
stroke:#000000; stroke-width:100; stroke-opacity:1; 
stroke-linecap:round; stroke-linejoin:round;">
</g>
<g style="fill:#000000; fill-opacity:0.0; 
stroke:#000000; stroke-width:60; stroke-opacity:1; 
stroke-linecap:round; stroke-linejoin:round;">
<path d="M23620 77960
L23620 78740
" />
</g>
<g style="fill:#000000; fill-opacity:0.0; 
stroke:#000000; stroke-width:100; stroke-opacity:1; 
stroke-linecap:round; stroke-linejoin:round;">
</g>
<g style="fill:#000000; fill-opacity:0.0; 
stroke:#000000; stroke-width:60; stroke-opacity:1; 
stroke-linecap:round; stroke-linejoin:round;">
<path d="M43310 77960
L43310 78740
" />
</g>
<g style="fill:#000000; fill-opacity:0.0; 
stroke:#000000; stroke-width:100; stroke-opacity:1; 
stroke-linecap:round; stroke-linejoin:round;">
</g>
<g style="fill:#000000; fill-opacity:0.0; 
stroke:#000000; stroke-width:60; stroke-opacity:1; 
stroke-linecap:round; stroke-linejoin:round;">
<path d="M62990 77960
L62990 78740
" />
</g>
<g style="fill:#000000; fill-opacity:0.0; 
stroke:#000000; stroke-width:100; stroke-opacity:1; 
stroke-linecap:round; stroke-linejoin:round;">
</g>
<g style="fill:#000000; fill-opacity:0.0; 
stroke:#000000; stroke-width:60; stroke-opacity:1; 
stroke-linecap:round; stroke-linejoin:round;">
<path d="M82680 77960
L82680 78740
" />
</g>
<g style="fill:#000000; fill-opacity:0.0; 
stroke:#000000; stroke-width:100; stroke-opacity:1; 
stroke-linecap:round; stroke-linejoin:round;">
</g>
<g style="fill:#000000; fill-opacity:0.0; 
stroke:#000000; stroke-width:60; stroke-opacity:1; 
stroke-linecap:round; stroke-linejoin:round;">
<path d="M102360 77960
L102360 78740
" />
</g>
<g style="fill:#000000; fill-opacity:0.0; 
stroke:#000000; stroke-width:100; stroke-opacity:1; 
stroke-linecap:round; stroke-linejoin:round;">
</g>
<g style="fill:#000000; fill-opacity:0.0; 
stroke:#000000; stroke-width:60; stroke-opacity:1; 
stroke-linecap:round; stroke-linejoin:round;">
<path d="M14170 78580
L13880 78580
" />
<path d="M14020 78580
L14020 78070
L13970 78140
L13930 78190
L13880 78210
" />
</g>
<g style="fill:#000000; fill-opacity:0.0; 
stroke:#000000; stroke-width:100; stroke-opacity:1; 
stroke-linecap:round; stroke-linejoin:round;">
</g>
<g style="fill:#000000; fill-opacity:0.0; 
stroke:#000000; stroke-width:60; stroke-opacity:1; 
stroke-linecap:round; stroke-linejoin:round;">
<path d="M33560 78110
L33580 78090
L33630 78070
L33750 78070
L33800 78090
L33820 78110
L33850 78160
L33850 78210
L33820 78280
L33530 78580
L33850 78580
" />
</g>
<g style="fill:#000000; fill-opacity:0.0; 
stroke:#000000; stroke-width:100; stroke-opacity:1; 
stroke-linecap:round; stroke-linejoin:round;">
</g>
<g style="fill:#000000; fill-opacity:0.0; 
stroke:#000000; stroke-width:60; stroke-opacity:1; 
stroke-linecap:round; stroke-linejoin:round;">
<path d="M53220 78070
L53540 78070
L53370 78260
L53440 78260
L53490 78280
L53510 78310
L53540 78360
L53540 78480
L53510 78530
L53490 78550
L53440 78580
L53300 78580
L53250 78550
L53220 78530
" />
</g>
<g style="fill:#000000; fill-opacity:0.0; 
stroke:#000000; stroke-width:100; stroke-opacity:1; 
stroke-linecap:round; stroke-linejoin:round;">
</g>
<g style="fill:#000000; fill-opacity:0.0; 
stroke:#000000; stroke-width:60; stroke-opacity:1; 
stroke-linecap:round; stroke-linejoin:round;">
<path d="M73170 78240
L73170 78580
" />
<path d="M73050 78040
L72930 78410
L73240 78410
" />
</g>
<g style="fill:#000000; fill-opacity:0.0; 
stroke:#000000; stroke-width:100; stroke-opacity:1; 
stroke-linecap:round; stroke-linejoin:round;">
</g>
<g style="fill:#000000; fill-opacity:0.0; 
stroke:#000000; stroke-width:60; stroke-opacity:1; 
stroke-linecap:round; stroke-linejoin:round;">
<path d="M92880 78070
L92640 78070
L92620 78310
L92640 78280
L92690 78260
L92810 78260
L92860 78280
L92880 78310
L92910 78360
L92910 78480
L92880 78530
L92860 78550
L92810 78580
L92690 78580
L92640 78550
L92620 78530
" />
</g>
<g style="fill:#000000; fill-opacity:0.0; 
stroke:#000000; stroke-width:100; stroke-opacity:1; 
stroke-linecap:round; stroke-linejoin:round;">
</g>
<g style="fill:#000000; fill-opacity:0.0; 
stroke:#000000; stroke-width:60; stroke-opacity:1; 
stroke-linecap:round; stroke-linejoin:round;">
<path d="M112540 78070
L112440 78070
L112390 78090
L112370 78110
L112320 78190
L112300 78280
L112300 78480
L112320 78530
L112350 78550
L112390 78580
L112490 78580
L112540 78550
L112560 78530
L112590 78480
L112590 78360
L112560 78310
L112540 78280
L112490 78260
L112390 78260
L112350 78280
L112320 78310
L112300 78360
" />
</g>
<g style="fill:#000000; fill-opacity:0.0; 
stroke:#000000; stroke-width:100; stroke-opacity:1; 
stroke-linecap:round; stroke-linejoin:round;">
</g>
<g style="fill:#000000; fill-opacity:0.0; 
stroke:#000000; stroke-width:60; stroke-opacity:1; 
stroke-linecap:round; stroke-linejoin:round;">
<path d="M3940 23620
L4720 23620
" />
</g>
<g style="fill:#000000; fill-opacity:0.0; 
stroke:#000000; stroke-width:100; stroke-opacity:1; 
stroke-linecap:round; stroke-linejoin:round;">
</g>
<g style="fill:#000000; fill-opacity:0.0; 
stroke:#000000; stroke-width:60; stroke-opacity:1; 
stroke-linecap:round; stroke-linejoin:round;">
<path d="M3940 43310
L4720 43310
" />
</g>
<g style="fill:#000000; fill-opacity:0.0; 
stroke:#000000; stroke-width:100; stroke-opacity:1; 
stroke-linecap:round; stroke-linejoin:round;">
</g>
<g style="fill:#000000; fill-opacity:0.0; 
stroke:#000000; stroke-width:60; stroke-opacity:1; 
stroke-linecap:round; stroke-linejoin:round;">
<path d="M3940 62990
L4720 62990
" />
</g>
<g style="fill:#000000; fill-opacity:0.0; 
stroke:#000000; stroke-width:100; stroke-opacity:1; 
stroke-linecap:round; stroke-linejoin:round;">
</g>
<g style="fill:#000000; fill-opacity:0.0; 
stroke:#000000; stroke-width:60; stroke-opacity:1; 
stroke-linecap:round; stroke-linejoin:round;">
<path d="M4210 13860
L4450 13860
" />
<path d="M4160 14010
L4330 13500
L4500 14010
" />
</g>
<g style="fill:#000000; fill-opacity:0.0; 
stroke:#000000; stroke-width:100; stroke-opacity:1; 
stroke-linecap:round; stroke-linejoin:round;">
</g>
<g style="fill:#000000; fill-opacity:0.0; 
stroke:#000000; stroke-width:60; stroke-opacity:1; 
stroke-linecap:round; stroke-linejoin:round;">
<path d="M4370 33420
L4440 33440
L4470 33470
L4490 33520
L4490 33590
L4470 33640
L4440 33660
L4400 33690
L4200 33690
L4200 33180
L4370 33180
L4420 33200
L4440 33220
L4470 33270
L4470 33320
L4440 33370
L4420 33390
L4370 33420
L4200 33420
" />
</g>
<g style="fill:#000000; fill-opacity:0.0; 
stroke:#000000; stroke-width:100; stroke-opacity:1; 
stroke-linecap:round; stroke-linejoin:round;">
</g>
<g style="fill:#000000; fill-opacity:0.0; 
stroke:#000000; stroke-width:60; stroke-opacity:1; 
stroke-linecap:round; stroke-linejoin:round;">
<path d="M4490 53330
L4470 53350
L4400 53380
L4350 53380
L4270 53350
L4230 53300
L4200 53250
L4180 53160
L4180 53080
L4200 52990
L4230 52940
L4270 52890
L4350 52870
L4400 52870
L4470 52890
L4490 52910
" />
</g>
<g style="fill:#000000; fill-opacity:0.0; 
stroke:#000000; stroke-width:100; stroke-opacity:1; 
stroke-linecap:round; stroke-linejoin:round;">
</g>
<g style="fill:#000000; fill-opacity:0.0; 
stroke:#000000; stroke-width:60; stroke-opacity:1; 
stroke-linecap:round; stroke-linejoin:round;">
<path d="M4200 73060
L4200 72550
L4320 72550
L4400 72570
L4440 72620
L4470 72670
L4490 72760
L4490 72840
L4470 72930
L4440 72980
L4400 73030
L4320 73060
L4200 73060
" />
</g>
<g style="fill:#000000; fill-opacity:0.0; 
stroke:#000000; stroke-width:100; stroke-opacity:1; 
stroke-linecap:round; stroke-linejoin:round;">
</g>
<g style="fill:#000000; fill-opacity:0.0; 
stroke:#000000; stroke-width:60; stroke-opacity:1; 
stroke-linecap:round; stroke-linejoin:round;">
<path d="M112990 23620
L112210 23620
" />
</g>
<g style="fill:#000000; fill-opacity:0.0; 
stroke:#000000; stroke-width:100; stroke-opacity:1; 
stroke-linecap:round; stroke-linejoin:round;">
</g>
<g style="fill:#000000; fill-opacity:0.0; 
stroke:#000000; stroke-width:60; stroke-opacity:1; 
stroke-linecap:round; stroke-linejoin:round;">
<path d="M112990 43310
L112210 43310
" />
</g>
<g style="fill:#000000; fill-opacity:0.0; 
stroke:#000000; stroke-width:100; stroke-opacity:1; 
stroke-linecap:round; stroke-linejoin:round;">
</g>
<g style="fill:#000000; fill-opacity:0.0; 
stroke:#000000; stroke-width:60; stroke-opacity:1; 
stroke-linecap:round; stroke-linejoin:round;">
<path d="M112990 62990
L112210 62990
" />
</g>
<g style="fill:#000000; fill-opacity:0.0; 
stroke:#000000; stroke-width:100; stroke-opacity:1; 
stroke-linecap:round; stroke-linejoin:round;">
</g>
<g style="fill:#000000; fill-opacity:0.0; 
stroke:#000000; stroke-width:60; stroke-opacity:1; 
stroke-linecap:round; stroke-linejoin:round;">
<path d="M112480 13860
L112720 13860
" />
<path d="M112430 14010
L112600 13500
L112770 14010
" />
</g>
<g style="fill:#000000; fill-opacity:0.0; 
stroke:#000000; stroke-width:100; stroke-opacity:1; 
stroke-linecap:round; stroke-linejoin:round;">
</g>
<g style="fill:#000000; fill-opacity:0.0; 
stroke:#000000; stroke-width:60; stroke-opacity:1; 
stroke-linecap:round; stroke-linejoin:round;">
<path d="M112640 33420
L112710 33440
L112740 33470
L112760 33520
L112760 33590
L112740 33640
L112710 33660
L112670 33690
L112470 33690
L112470 33180
L112640 33180
L112690 33200
L112710 33220
L112740 33270
L112740 33320
L112710 33370
L112690 33390
L112640 33420
L112470 33420
" />
</g>
<g style="fill:#000000; fill-opacity:0.0; 
stroke:#000000; stroke-width:100; stroke-opacity:1; 
stroke-linecap:round; stroke-linejoin:round;">
</g>
<g style="fill:#000000; fill-opacity:0.0; 
stroke:#000000; stroke-width:60; stroke-opacity:1; 
stroke-linecap:round; stroke-linejoin:round;">
<path d="M112760 53330
L112740 53350
L112670 53380
L112620 53380
L112540 53350
L112500 53300
L112470 53250
L112450 53160
L112450 53080
L112470 52990
L112500 52940
L112540 52890
L112620 52870
L112670 52870
L112740 52890
L112760 52910
" />
</g>
<g style="fill:#000000; fill-opacity:0.0; 
stroke:#000000; stroke-width:100; stroke-opacity:1; 
stroke-linecap:round; stroke-linejoin:round;">
</g>
<g style="fill:#000000; fill-opacity:0.0; 
stroke:#000000; stroke-width:60; stroke-opacity:1; 
stroke-linecap:round; stroke-linejoin:round;">
<path d="M112470 73060
L112470 72550
L112590 72550
L112670 72570
L112710 72620
L112740 72670
L112760 72760
L112760 72840
L112740 72930
L112710 72980
L112670 73030
L112590 73060
L112470 73060
" />
</g>
<g style="fill:#000000; fill-opacity:0.0; 
stroke:#000000; stroke-width:100; stroke-opacity:1; 
stroke-linecap:round; stroke-linejoin:round;">
</g>
<g style="fill:#000000; fill-opacity:0.0; 
stroke:#000000; stroke-width:60; stroke-opacity:1; 
stroke-linecap:round; stroke-linejoin:round;">
<path d="M78880 76290
L78880 75700
L79020 75700
L79110 75730
L79160 75790
L79190 75840
L79220 75950
L79220 76040
L79190 76150
L79160 76210
L79110 76260
L79020 76290
L78880 76290
" />
<path d="M79720 76290
L79720 75980
L79700 75930
L79640 75900
L79530 75900
L79470 75930
" />
<path d="M79720 76260
L79670 76290
L79530 76290
L79470 76260
L79440 76210
L79440 76150
L79470 76100
L79530 76070
L79670 76070
L79720 76040
" />
<path d="M79920 75900
L80140 75900
" />
<path d="M80000 75700
L80000 76210
L80030 76260
L80080 76290
L80140 76290
" />
<path d="M80570 76260
L80510 76290
L80400 76290
L80340 76260
L80310 76210
L80310 75980
L80340 75930
L80400 75900
L80510 75900
L80570 75930
L80590 75980
L80590 76040
L80310 76100
" />
<path d="M80850 76240
L80880 76260
L80850 76290
L80820 76260
L80850 76240
L80850 76290
" />
<path d="M80850 75930
L80880 75950
L80850 75980
L80820 75950
L80850 75930
L80850 75980
" />
</g>
<g style="fill:#000000; fill-opacity:0.0; 
stroke:#000000; stroke-width:100; stroke-opacity:1; 
stroke-linecap:round; stroke-linejoin:round;">
</g>
<g style="fill:#000000; fill-opacity:0.0; 
stroke:#000000; stroke-width:60; stroke-opacity:1; 
stroke-linecap:round; stroke-linejoin:round;">
<path d="M69690 76580
L112210 76580
" />
</g>
<g style="fill:#000000; fill-opacity:0.0; 
stroke:#000000; stroke-width:100; stroke-opacity:1; 
stroke-linecap:round; stroke-linejoin:round;">
</g>
<g style="fill:#000000; fill-opacity:0.0; 
stroke:#000000; stroke-width:60; stroke-opacity:1; 
stroke-linecap:round; stroke-linejoin:round;">
<path d="M70220 77390
L70220 76800
" />
<path d="M70560 77390
L70300 77050
" />
<path d="M70560 76800
L70220 77140
" />
<path d="M70810 77390
L70810 77000
" />
<path d="M70810 76800
L70780 76830
L70810 76860
L70840 76830
L70810 76800
L70810 76860
" />
<path d="M71430 77340
L71400 77360
L71320 77390
L71260 77390
L71170 77360
L71120 77310
L71090 77250
L71060 77140
L71060 77050
L71090 76940
L71120 76890
L71170 76830
L71260 76800
L71320 76800
L71400 76830
L71430 76860
" />
<path d="M71930 77390
L71930 77080
L71910 77030
L71850 77000
L71740 77000
L71680 77030
" />
<path d="M71930 77360
L71880 77390
L71740 77390
L71680 77360
L71650 77310
L71650 77250
L71680 77200
L71740 77170
L71880 77170
L71930 77140
" />
<path d="M72460 77390
L72460 76800
" />
<path d="M72460 77360
L72410 77390
L72290 77390
L72240 77360
L72210 77340
L72180 77280
L72180 77110
L72210 77050
L72240 77030
L72290 77000
L72410 77000
L72460 77030
" />
<path d="M73190 77080
L73390 77080
" />
<path d="M73470 77390
L73190 77390
L73190 76800
L73470 76800
" />
<path d="M73720 77340
L73750 77360
L73720 77390
L73690 77360
L73720 77340
L73720 77390
" />
<path d="M74000 77390
L74000 76800
L74140 76800
L74230 76830
L74280 76890
L74310 76940
L74340 77050
L74340 77140
L74310 77250
L74280 77310
L74230 77360
L74140 77390
L74000 77390
" />
<path d="M74590 77340
L74620 77360
L74590 77390
L74560 77360
L74590 77340
L74590 77390
" />
<path d="M74840 77220
L75120 77220
" />
<path d="M74790 77390
L74980 76800
L75180 77390
" />
<path d="M75380 77340
L75410 77360
L75380 77390
L75350 77360
L75380 77340
L75380 77390
" />
<path d="M76560 77390
L76560 76800
" />
<path d="M76620 77170
L76790 77390
" />
<path d="M76790 77000
L76560 77220
" />
<path d="M77040 77390
L77040 77000
" />
<path d="M77040 76800
L77010 76830
L77040 76860
L77070 76830
L77040 76800
L77040 76860
" />
<path d="M77570 77360
L77520 77390
L77400 77390
L77350 77360
L77320 77340
L77290 77280
L77290 77110
L77320 77050
L77350 77030
L77400 77000
L77520 77000
L77570 77030
" />
<path d="M78080 77390
L78080 77080
L78060 77030
L78000 77000
L77890 77000
L77830 77030
" />
<path d="M78080 77360
L78030 77390
L77890 77390
L77830 77360
L77800 77310
L77800 77250
L77830 77200
L77890 77170
L78030 77170
L78080 77140
" />
<path d="M78610 77390
L78610 76800
" />
<path d="M78610 77360
L78560 77390
L78440 77390
L78390 77360
L78360 77340
L78330 77280
L78330 77110
L78360 77050
L78390 77030
L78440 77000
L78560 77000
L78610 77030
" />
<path d="M79590 77000
L79590 77390
" />
<path d="M79450 76770
L79310 77200
L79680 77200
" />
<path d="M79900 77340
L79930 77360
L79900 77390
L79870 77360
L79900 77340
L79900 77390
" />
<path d="M80290 76800
L80350 76800
L80410 76830
L80430 76860
L80460 76910
L80490 77030
L80490 77170
L80460 77280
L80430 77340
L80410 77360
L80350 77390
L80290 77390
L80240 77360
L80210 77340
L80180 77280
L80150 77170
L80150 77030
L80180 76910
L80210 76860
L80240 76830
L80290 76800
" />
<path d="M80740 77340
L80770 77360
L80740 77390
L80710 77360
L80740 77340
L80740 77390
" />
<path d="M81270 76800
L81160 76800
L81100 76830
L81080 76860
L81020 76940
L80990 77050
L80990 77280
L81020 77340
L81050 77360
L81100 77390
L81220 77390
L81270 77360
L81300 77340
L81330 77280
L81330 77140
L81300 77080
L81270 77050
L81220 77030
L81100 77030
L81050 77050
L81020 77080
L80990 77140
" />
</g>
<g style="fill:#000000; fill-opacity:0.0; 
stroke:#000000; stroke-width:100; stroke-opacity:1; 
stroke-linecap:round; stroke-linejoin:round;">
</g>
<g style="fill:#000000; fill-opacity:0.0; 
stroke:#000000; stroke-width:60; stroke-opacity:1; 
stroke-linecap:round; stroke-linejoin:round;">
<path d="M69690 75400
L112210 75400
" />
</g>
<g style="fill:#000000; fill-opacity:0.0; 
stroke:#000000; stroke-width:100; stroke-opacity:1; 
stroke-linecap:round; stroke-linejoin:round;">
</g>
<g style="fill:#000000; fill-opacity:0.0; 
stroke:#000000; stroke-width:120; stroke-opacity:1; 
stroke-linecap:round; stroke-linejoin:round;">
<path d="M104020 76290
L103820 76010
" />
<path d="M103680 76290
L103680 75700
L103910 75700
L103960 75730
L103990 75760
L104020 75810
L104020 75900
L103990 75950
L103960 75980
L103910 76010
L103680 76010
" />
<path d="M104500 76260
L104440 76290
L104330 76290
L104270 76260
L104240 76210
L104240 75980
L104270 75930
L104330 75900
L104440 75900
L104500 75930
L104520 75980
L104520 76040
L104240 76100
" />
<path d="M104720 75900
L104860 76290
L105010 75900
" />
<path d="M105230 76240
L105260 76260
L105230 76290
L105200 76260
L105230 76240
L105230 76290
" />
<path d="M105230 75930
L105260 75950
L105230 75980
L105200 75950
L105230 75930
L105230 75980
" />
</g>
<g style="fill:#000000; fill-opacity:0.0; 
stroke:#000000; stroke-width:100; stroke-opacity:1; 
stroke-linecap:round; stroke-linejoin:round;">
</g>
<g style="fill:#000000; fill-opacity:0.0; 
stroke:#000000; stroke-width:60; stroke-opacity:1; 
stroke-linecap:round; stroke-linejoin:round;">
<path d="M70190 76260
L70280 76290
L70420 76290
L70470 76260
L70500 76240
L70530 76180
L70530 76120
L70500 76070
L70470 76040
L70420 76010
L70300 75980
L70250 75950
L70220 75930
L70190 75870
L70190 75810
L70220 75760
L70250 75730
L70300 75700
L70450 75700
L70530 75730
" />
<path d="M70780 76290
L70780 75900
" />
<path d="M70780 75700
L70750 75730
L70780 75760
L70810 75730
L70780 75700
L70780 75760
" />
<path d="M71000 75900
L71310 75900
L71000 76290
L71310 76290
" />
<path d="M71770 76260
L71710 76290
L71600 76290
L71540 76260
L71510 76210
L71510 75980
L71540 75930
L71600 75900
L71710 75900
L71770 75930
L71790 75980
L71790 76040
L71510 76100
" />
<path d="M72050 76240
L72080 76260
L72050 76290
L72020 76260
L72050 76240
L72050 76290
" />
<path d="M72050 75930
L72080 75950
L72050 75980
L72020 75950
L72050 75930
L72050 75980
" />
<path d="M72750 76120
L73030 76120
" />
<path d="M72700 76290
L72890 75700
L73090 76290
" />
<path d="M73540 75900
L73540 76290
" />
<path d="M73400 75670
L73260 76100
L73630 76100
" />
</g>
<g style="fill:#000000; fill-opacity:0.0; 
stroke:#000000; stroke-width:100; stroke-opacity:1; 
stroke-linecap:round; stroke-linejoin:round;">
</g>
<g style="fill:#000000; fill-opacity:0.0; 
stroke:#000000; stroke-width:60; stroke-opacity:1; 
stroke-linecap:round; stroke-linejoin:round;">
<path d="M103680 77390
L103680 76800
" />
<path d="M104210 77390
L104210 76800
" />
<path d="M104210 77360
L104160 77390
L104040 77390
L103990 77360
L103960 77340
L103930 77280
L103930 77110
L103960 77050
L103990 77030
L104040 77000
L104160 77000
L104210 77030
" />
<path d="M104490 77340
L104520 77360
L104490 77390
L104460 77360
L104490 77340
L104490 77390
" />
<path d="M104490 77030
L104520 77050
L104490 77080
L104460 77050
L104490 77030
L104490 77080
" />
<path d="M105530 77390
L105190 77390
" />
<path d="M105360 77390
L105360 76800
L105300 76890
L105250 76940
L105190 76970
" />
<path d="M106200 76770
L105700 77530
" />
<path d="M106710 77390
L106370 77390
" />
<path d="M106540 77390
L106540 76800
L106480 76890
L106430 76940
L106370 76970
" />
</g>
<g style="fill:#000000; fill-opacity:0.0; 
stroke:#000000; stroke-width:100; stroke-opacity:1; 
stroke-linecap:round; stroke-linejoin:round;">
</g>
<g style="fill:#000000; fill-opacity:0.0; 
stroke:#000000; stroke-width:60; stroke-opacity:1; 
stroke-linecap:round; stroke-linejoin:round;">
<path d="M69690 73820
L112210 73820
" />
</g>
<g style="fill:#000000; fill-opacity:0.0; 
stroke:#000000; stroke-width:100; stroke-opacity:1; 
stroke-linecap:round; stroke-linejoin:round;">
</g>
<g style="fill:#000000; fill-opacity:0.0; 
stroke:#000000; stroke-width:160; stroke-opacity:1; 
stroke-linecap:round; stroke-linejoin:round;">
<path d="M70260 74090
L70710 74090
" />
<path d="M70390 74880
L70480 74090
" />
<path d="M70880 74880
L70940 74360
" />
<path d="M70970 74090
L70930 74130
L70960 74170
L71010 74130
L70970 74090
L70960 74170
" />
<path d="M71210 74360
L71510 74360
" />
<path d="M71350 74090
L71270 74770
L71300 74840
L71370 74880
L71450 74880
" />
<path d="M71820 74880
L71750 74840
L71720 74770
L71800 74090
" />
<path d="M72420 74840
L72340 74880
L72190 74880
L72120 74840
L72090 74770
L72130 74470
L72180 74390
L72250 74360
L72400 74360
L72480 74390
L72510 74470
L72500 74540
L72110 74620
" />
<path d="M72800 74810
L72840 74840
L72800 74880
L72760 74840
L72800 74810
L72800 74880
" />
<path d="M72860 74390
L72890 74430
L72850 74470
L72810 74430
L72860 74390
L72850 74470
" />
<path d="M74090 74470
L74190 74510
L74230 74540
L74260 74620
L74240 74730
L74190 74810
L74150 74840
L74080 74880
L73780 74880
L73870 74090
L74130 74090
L74210 74130
L74230 74170
L74270 74240
L74260 74320
L74210 74390
L74170 74430
L74090 74470
L73830 74470
" />
<path d="M74880 74470
L74620 74470
" />
<path d="M74570 74880
L74660 74090
L75030 74090
" />
<path d="M75750 74130
L75680 74090
L75560 74090
L75450 74130
L75370 74210
L75320 74280
L75260 74430
L75250 74540
L75270 74690
L75300 74770
L75360 74840
L75470 74880
L75550 74880
L75660 74840
L75700 74810
L75740 74540
L75590 74540
" />
<path d="M76500 74090
L76130 74090
L76050 74470
L76090 74430
L76170 74390
L76360 74390
L76430 74430
L76460 74470
L76490 74540
L76460 74730
L76410 74810
L76380 74840
L76300 74880
L76110 74880
L76040 74840
L76000 74810
" />
<path d="M77190 74360
L77130 74880
" />
<path d="M77040 74050
L76780 74620
L77270 74620
" />
<path d="M77780 74090
L77850 74090
L77930 74130
L77960 74170
L77990 74240
L78010 74390
L77980 74580
L77920 74730
L77880 74810
L77840 74840
L77760 74880
L77690 74880
L77610 74840
L77580 74810
L77550 74730
L77530 74580
L77560 74390
L77620 74240
L77660 74170
L77700 74130
L77780 74090
" />
<path d="M78300 74090
L78400 74880
L78620 74320
L78700 74880
L78980 74090
" />
<path d="M79820 74580
L80420 74580
" />
<path d="M81740 74880
L81370 74880
L81460 74090
" />
<path d="M82010 74880
L82100 74090
L82460 74880
L82550 74090
" />
<path d="M82820 74660
L83200 74660
" />
<path d="M82730 74880
L83080 74090
L83250 74880
" />
</g>
<g style="fill:#000000; fill-opacity:0.0; 
stroke:#000000; stroke-width:100; stroke-opacity:1; 
stroke-linecap:round; stroke-linejoin:round;">
</g>
<g style="fill:#000000; fill-opacity:0.0; 
stroke:#000000; stroke-width:60; stroke-opacity:1; 
stroke-linecap:round; stroke-linejoin:round;">
<path d="M70420 73060
L70220 73060
" />
<path d="M70220 73370
L70220 72780
L70500 72780
" />
<path d="M70730 73370
L70730 72980
" />
<path d="M70730 72780
L70700 72810
L70730 72840
L70760 72810
L70730 72780
L70730 72840
" />
<path d="M71090 73370
L71040 73340
L71010 73290
L71010 72780
" />
<path d="M71550 73340
L71490 73370
L71380 73370
L71320 73340
L71290 73290
L71290 73060
L71320 73010
L71380 72980
L71490 72980
L71550 73010
L71570 73060
L71570 73120
L71290 73180
" />
<path d="M71830 73320
L71860 73340
L71830 73370
L71800 73340
L71830 73320
L71830 73370
" />
<path d="M71830 73010
L71860 73030
L71830 73060
L71800 73030
L71830 73010
L71830 73060
" />
<path d="M72640 73370
L72590 73340
L72560 73290
L72560 72780
" />
<path d="M72870 72980
L72870 73370
" />
<path d="M72870 73030
L72900 73010
L72950 72980
L73040 72980
L73100 73010
L73120 73060
L73120 73370
" />
<path d="M73650 73370
L73650 73060
L73630 73010
L73570 72980
L73460 72980
L73400 73010
" />
<path d="M73650 73340
L73600 73370
L73460 73370
L73400 73340
L73370 73290
L73370 73230
L73400 73180
L73460 73150
L73600 73150
L73650 73120
" />
<path d="M73930 73320
L73960 73340
L73930 73370
L73900 73340
L73930 73320
L73930 73370
" />
<path d="M74180 73340
L74240 73370
L74350 73370
L74410 73340
L74440 73290
L74440 73260
L74410 73200
L74350 73180
L74270 73180
L74210 73150
L74180 73090
L74180 73060
L74210 73010
L74270 72980
L74350 72980
L74410 73010
" />
<path d="M74940 73340
L74890 73370
L74770 73370
L74720 73340
L74690 73320
L74660 73260
L74660 73090
L74690 73030
L74720 73010
L74770 72980
L74890 72980
L74940 73010
" />
<path d="M75200 73370
L75200 72780
" />
<path d="M75450 73370
L75450 73060
L75430 73010
L75370 72980
L75280 72980
L75230 73010
L75200 73030
" />
</g>
<g style="fill:#000000; fill-opacity:0.0; 
stroke:#000000; stroke-width:100; stroke-opacity:1; 
stroke-linecap:round; stroke-linejoin:round;">
</g>
<g style="fill:#000000; fill-opacity:0.0; 
stroke:#000000; stroke-width:60; stroke-opacity:1; 
stroke-linecap:round; stroke-linejoin:round;">
<path d="M69690 71460
L112210 71460
" />
</g>
<g style="fill:#000000; fill-opacity:0.0; 
stroke:#000000; stroke-width:100; stroke-opacity:1; 
stroke-linecap:round; stroke-linejoin:round;">
</g>
<g style="fill:#000000; fill-opacity:0.0; 
stroke:#000000; stroke-width:60; stroke-opacity:1; 
stroke-linecap:round; stroke-linejoin:round;">
<path d="M70190 72280
L70280 72310
L70420 72310
L70470 72280
L70500 72260
L70530 72200
L70530 72140
L70500 72090
L70470 72060
L70420 72030
L70300 72000
L70250 71970
L70220 71950
L70190 71890
L70190 71830
L70220 71780
L70250 71750
L70300 71720
L70450 71720
L70530 71750
" />
<path d="M70780 72310
L70780 71720
" />
<path d="M71030 72310
L71030 72000
L71010 71950
L70950 71920
L70860 71920
L70810 71950
L70780 71970
" />
<path d="M71540 72280
L71480 72310
L71370 72310
L71310 72280
L71280 72230
L71280 72000
L71310 71950
L71370 71920
L71480 71920
L71540 71950
L71560 72000
L71560 72060
L71280 72120
" />
<path d="M72050 72280
L71990 72310
L71880 72310
L71820 72280
L71790 72230
L71790 72000
L71820 71950
L71880 71920
L71990 71920
L72050 71950
L72070 72000
L72070 72060
L71790 72120
" />
<path d="M72250 71920
L72470 71920
" />
<path d="M72330 71720
L72330 72230
L72360 72280
L72410 72310
L72470 72310
" />
<path d="M72670 72260
L72700 72280
L72670 72310
L72640 72280
L72670 72260
L72670 72310
" />
<path d="M72670 71950
L72700 71970
L72670 72000
L72640 71970
L72670 71950
L72670 72000
" />
<path d="M73820 71690
L73320 72450
" />
</g>
<g style="fill:#000000; fill-opacity:0.0; 
stroke:#000000; stroke-width:100; stroke-opacity:1; 
stroke-linecap:round; stroke-linejoin:round;">
</g>
<g style="fill:#000000; fill-opacity:0.0; 
stroke:#000000; stroke-width:60; stroke-opacity:1; 
stroke-linecap:round; stroke-linejoin:round;">
<path d="M70330 69360
L70450 69360
L70500 69390
L70560 69450
L70590 69560
L70590 69760
L70560 69870
L70500 69920
L70450 69950
L70330 69950
L70280 69920
L70220 69870
L70190 69760
L70190 69560
L70220 69450
L70280 69390
L70330 69360
" />
<path d="M70840 69950
L70840 69560
" />
<path d="M70840 69670
L70870 69610
L70900 69590
L70950 69560
L71010 69560
" />
<path d="M71210 69950
L71210 69560
" />
<path d="M71210 69360
L71180 69390
L71210 69420
L71240 69390
L71210 69360
L71210 69420
" />
<path d="M71740 69560
L71740 70040
L71720 70090
L71690 70120
L71630 70150
L71550 70150
L71490 70120
" />
<path d="M71740 69920
L71690 69950
L71570 69950
L71520 69920
L71490 69900
L71460 69840
L71460 69670
L71490 69610
L71520 69590
L71570 69560
L71690 69560
L71740 69590
" />
<path d="M72020 69950
L72020 69560
" />
<path d="M72020 69360
L71990 69390
L72020 69420
L72050 69390
L72020 69360
L72020 69420
" />
<path d="M72300 69560
L72300 69950
" />
<path d="M72300 69610
L72330 69590
L72380 69560
L72470 69560
L72530 69590
L72550 69640
L72550 69950
" />
<path d="M73080 69950
L73080 69640
L73060 69590
L73000 69560
L72890 69560
L72830 69590
" />
<path d="M73080 69920
L73030 69950
L72890 69950
L72830 69920
L72800 69870
L72800 69810
L72830 69760
L72890 69730
L73030 69730
L73080 69700
" />
<path d="M73440 69950
L73390 69920
L73360 69870
L73360 69360
" />
<path d="M74370 69950
L74370 69360
" />
<path d="M74370 69920
L74320 69950
L74200 69950
L74150 69920
L74120 69900
L74090 69840
L74090 69670
L74120 69610
L74150 69590
L74200 69560
L74320 69560
L74370 69590
" />
<path d="M74880 69920
L74820 69950
L74710 69950
L74650 69920
L74620 69870
L74620 69640
L74650 69590
L74710 69560
L74820 69560
L74880 69590
L74900 69640
L74900 69700
L74620 69760
" />
<path d="M75130 69920
L75190 69950
L75300 69950
L75360 69920
L75390 69870
L75390 69840
L75360 69780
L75300 69760
L75220 69760
L75160 69730
L75130 69670
L75130 69640
L75160 69590
L75220 69560
L75300 69560
L75360 69590
" />
<path d="M75640 69950
L75640 69560
" />
<path d="M75640 69360
L75610 69390
L75640 69420
L75670 69390
L75640 69360
L75640 69420
" />
<path d="M76170 69560
L76170 70040
L76150 70090
L76120 70120
L76060 70150
L75980 70150
L75920 70120
" />
<path d="M76170 69920
L76120 69950
L76000 69950
L75950 69920
L75920 69900
L75890 69840
L75890 69670
L75920 69610
L75950 69590
L76000 69560
L76120 69560
L76170 69590
" />
<path d="M76450 69560
L76450 69950
" />
<path d="M76450 69610
L76480 69590
L76530 69560
L76620 69560
L76680 69590
L76700 69640
L76700 69950
" />
<path d="M77430 69950
L77430 69360
" />
<path d="M77430 69590
L77490 69560
L77600 69560
L77660 69590
L77680 69610
L77710 69670
L77710 69840
L77680 69900
L77660 69920
L77600 69950
L77490 69950
L77430 69920
" />
<path d="M77900 69560
L78040 69950
" />
<path d="M78190 69560
L78040 69950
L77990 70090
L77960 70120
L77900 70150
" />
<path d="M78800 69560
L78940 69950
" />
<path d="M79090 69560
L78940 69950
L78890 70090
L78860 70120
L78800 70150
" />
<path d="M79560 69560
L79560 69950
" />
<path d="M79310 69560
L79310 69870
L79340 69920
L79390 69950
L79480 69950
L79540 69920
L79560 69900
" />
<path d="M80150 69950
L79810 69950
" />
<path d="M79980 69950
L79980 69360
L79920 69450
L79870 69500
L79810 69530
" />
<path d="M80650 69950
L80650 69640
L80630 69590
L80570 69560
L80460 69560
L80400 69590
" />
<path d="M80650 69920
L80600 69950
L80460 69950
L80400 69920
L80370 69870
L80370 69810
L80400 69760
L80460 69730
L80600 69730
L80650 69700
" />
<path d="M80870 69560
L80990 69950
L81100 69670
L81210 69950
L81320 69560
" />
</g>
<g style="fill:#000000; fill-opacity:0.0; 
stroke:#000000; stroke-width:100; stroke-opacity:1; 
stroke-linecap:round; stroke-linejoin:round;">
</g>
<g style="fill:#000000; fill-opacity:0.0; 
stroke:#000000; stroke-width:60; stroke-opacity:1; 
stroke-linecap:round; stroke-linejoin:round;">
<path d="M70220 68770
L70220 68180
" />
<path d="M70470 68770
L70470 68460
L70450 68410
L70390 68380
L70300 68380
L70250 68410
L70220 68430
" />
<path d="M70670 68380
L70890 68380
" />
<path d="M70750 68180
L70750 68690
L70780 68740
L70830 68770
L70890 68770
" />
<path d="M71010 68380
L71230 68380
" />
<path d="M71090 68180
L71090 68690
L71120 68740
L71170 68770
L71230 68770
" />
<path d="M71430 68380
L71430 68970
" />
<path d="M71430 68410
L71490 68380
L71600 68380
L71660 68410
L71680 68430
L71710 68490
L71710 68660
L71680 68720
L71660 68740
L71600 68770
L71490 68770
L71430 68740
" />
<path d="M71960 68720
L71990 68740
L71960 68770
L71930 68740
L71960 68720
L71960 68770
" />
<path d="M71960 68410
L71990 68430
L71960 68460
L71930 68430
L71960 68410
L71960 68460
" />
<path d="M72660 68150
L72160 68910
" />
<path d="M73280 68150
L72780 68910
" />
<path d="M73420 68380
L73540 68770
L73650 68490
L73760 68770
L73870 68380
" />
<path d="M74040 68380
L74160 68770
L74270 68490
L74380 68770
L74490 68380
" />
<path d="M74660 68380
L74780 68770
L74890 68490
L75000 68770
L75110 68380
" />
<path d="M75340 68720
L75370 68740
L75340 68770
L75310 68740
L75340 68720
L75340 68770
" />
<path d="M75870 68380
L75870 68970
" />
<path d="M75870 68740
L75820 68770
L75700 68770
L75650 68740
L75620 68720
L75590 68660
L75590 68490
L75620 68430
L75650 68410
L75700 68380
L75820 68380
L75870 68410
" />
<path d="M76120 68740
L76180 68770
L76290 68770
L76350 68740
L76380 68690
L76380 68660
L76350 68600
L76290 68580
L76210 68580
L76150 68550
L76120 68490
L76120 68460
L76150 68410
L76210 68380
L76290 68380
L76350 68410
" />
<path d="M76710 68770
L76660 68740
L76630 68690
L76630 68180
" />
<path d="M76940 68720
L76970 68740
L76940 68770
L76910 68740
L76940 68720
L76940 68770
" />
<path d="M77220 68380
L77220 68770
" />
<path d="M77220 68430
L77250 68410
L77300 68380
L77390 68380
L77450 68410
L77470 68460
L77470 68770
" />
<path d="M77980 68740
L77920 68770
L77810 68770
L77750 68740
L77720 68690
L77720 68460
L77750 68410
L77810 68380
L77920 68380
L77980 68410
L78000 68460
L78000 68520
L77720 68580
" />
<path d="M78180 68380
L78400 68380
" />
<path d="M78260 68180
L78260 68690
L78290 68740
L78340 68770
L78400 68770
" />
<path d="M79020 68150
L78520 68910
" />
<path d="M79160 68380
L79300 68770
" />
<path d="M79450 68380
L79300 68770
L79250 68910
L79220 68940
L79160 68970
" />
<path d="M79920 68380
L79920 68770
" />
<path d="M79670 68380
L79670 68690
L79700 68740
L79750 68770
L79840 68770
L79900 68740
L79920 68720
" />
<path d="M80510 68770
L80170 68770
" />
<path d="M80340 68770
L80340 68180
L80280 68270
L80230 68320
L80170 68350
" />
<path d="M81010 68770
L81010 68460
L80990 68410
L80930 68380
L80820 68380
L80760 68410
" />
<path d="M81010 68740
L80960 68770
L80820 68770
L80760 68740
L80730 68690
L80730 68630
L80760 68580
L80820 68550
L80960 68550
L81010 68520
" />
<path d="M81230 68380
L81350 68770
L81460 68490
L81570 68770
L81680 68380
" />
<path d="M82330 68150
L81830 68910
" />
<path d="M82810 68770
L82530 68770
L82530 68180
" />
<path d="M83010 68770
L83010 68180
L83350 68770
L83350 68180
" />
<path d="M83600 68600
L83880 68600
" />
<path d="M83550 68770
L83740 68180
L83940 68770
" />
<path d="M84560 68150
L84060 68910
" />
<path d="M84760 68770
L84760 68180
" />
<path d="M84760 68410
L84820 68380
L84930 68380
L84990 68410
L85010 68430
L85040 68490
L85040 68660
L85010 68720
L84990 68740
L84930 68770
L84820 68770
L84760 68740
" />
<path d="M85210 68380
L85430 68380
" />
<path d="M85290 68770
L85290 68270
L85320 68210
L85370 68180
L85430 68180
" />
<path d="M85630 68380
L85630 68970
" />
<path d="M85630 68410
L85690 68380
L85800 68380
L85860 68410
L85880 68430
L85910 68490
L85910 68660
L85880 68720
L85860 68740
L85800 68770
L85690 68770
L85630 68740
" />
<path d="M86470 68770
L86130 68770
" />
<path d="M86300 68770
L86300 68180
L86240 68270
L86190 68320
L86130 68350
" />
<path d="M86750 68770
L86860 68770
L86920 68740
L86950 68720
L87000 68630
L87030 68520
L87030 68290
L87000 68240
L86970 68210
L86920 68180
L86800 68180
L86750 68210
L86720 68240
L86690 68290
L86690 68430
L86720 68490
L86750 68520
L86800 68550
L86920 68550
L86970 68520
L87000 68490
L87030 68430
" />
<path d="M87530 68180
L87420 68180
L87360 68210
L87340 68240
L87280 68320
L87250 68430
L87250 68660
L87280 68720
L87310 68740
L87360 68770
L87480 68770
L87530 68740
L87560 68720
L87590 68660
L87590 68520
L87560 68460
L87530 68430
L87480 68410
L87360 68410
L87310 68430
L87280 68460
L87250 68520
" />
<path d="M87840 68380
L87840 68970
" />
<path d="M87840 68410
L87900 68380
L88010 68380
L88070 68410
L88090 68430
L88120 68490
L88120 68660
L88090 68720
L88070 68740
L88010 68770
L87900 68770
L87840 68740
" />
<path d="M88600 68740
L88540 68770
L88430 68770
L88370 68740
L88340 68690
L88340 68460
L88370 68410
L88430 68380
L88540 68380
L88600 68410
L88620 68460
L88620 68520
L88340 68580
" />
<path d="M88880 68380
L88880 68770
" />
<path d="M88880 68430
L88910 68410
L88960 68380
L89050 68380
L89110 68410
L89130 68460
L89130 68770
" />
<path d="M89660 68380
L89660 68860
L89640 68910
L89610 68940
L89550 68970
L89470 68970
L89410 68940
" />
<path d="M89660 68740
L89610 68770
L89490 68770
L89440 68740
L89410 68720
L89380 68660
L89380 68490
L89410 68430
L89440 68410
L89490 68380
L89610 68380
L89660 68410
" />
<path d="M89940 68720
L89970 68740
L89940 68770
L89910 68740
L89940 68720
L89940 68770
" />
<path d="M90220 68770
L90220 68180
" />
<path d="M90470 68770
L90470 68460
L90450 68410
L90390 68380
L90300 68380
L90250 68410
L90220 68430
" />
<path d="M90670 68380
L90890 68380
" />
<path d="M90750 68180
L90750 68690
L90780 68740
L90830 68770
L90890 68770
" />
<path d="M91090 68770
L91090 68380
" />
<path d="M91090 68430
L91120 68410
L91170 68380
L91260 68380
L91320 68410
L91340 68460
L91340 68770
" />
<path d="M91340 68460
L91370 68410
L91430 68380
L91510 68380
L91570 68410
L91600 68460
L91600 68770
" />
</g>
<g style="fill:#000000; fill-opacity:0.0; 
stroke:#000000; stroke-width:100; stroke-opacity:1; 
stroke-linecap:round; stroke-linejoin:round;">
</g>
<g style="fill:#000000; fill-opacity:0.0; 
stroke:#000000; stroke-width:60; stroke-opacity:1; 
stroke-linecap:round; stroke-linejoin:round;">
<path d="M77560 75400
L77560 76580
" />
</g>
<g style="fill:#000000; fill-opacity:0.0; 
stroke:#000000; stroke-width:100; stroke-opacity:1; 
stroke-linecap:round; stroke-linejoin:round;">
</g>
<g style="fill:#000000; fill-opacity:0.0; 
stroke:#000000; stroke-width:60; stroke-opacity:1; 
stroke-linecap:round; stroke-linejoin:round;">
<path d="M102760 75400
L102760 77960
" />
</g>
<g style="fill:#000000; fill-opacity:0.0; 
stroke:#000000; stroke-width:0; stroke-opacity:1; 
stroke-linecap:round; stroke-linejoin:round;">
</g>
<g style="fill:#000000; fill-opacity:0.0; 
stroke:#000000; stroke-width:60; stroke-opacity:1; 
stroke-linecap:round; stroke-linejoin:round;">
<circle cx="32500" cy="47500" r="310" /> 
<polyline fill="none;"
points="32800,47500
33000,47500
" /> 
<path d="M33000 47500
L34000 47500
" />
<path d="M32870 46670
L32870 46270
L33020 46270
L33060 46290
L33070 46310
L33090 46350
L33090 46400
L33070 46440
L33060 46460
L33020 46480
L32870 46480
" />
<path d="M33470 46670
L33250 46670
" />
<path d="M33360 46670
L33360 46270
L33320 46330
L33280 46370
L33250 46390
" />
</g>
<g style="fill:#000000; fill-opacity:0.0; 
stroke:#000000; stroke-width:0; stroke-opacity:1; 
stroke-linecap:round; stroke-linejoin:round;">
</g>
<g style="fill:#000000; fill-opacity:0.0; 
stroke:#000000; stroke-width:60; stroke-opacity:1; 
stroke-linecap:round; stroke-linejoin:round;">
<path d="M40999.9 47490.4 A500 500 0.0 0 0 40000.1 47490.4 " />
<path d="M39999.9 47490.2 A510 510 0.0 0 0 38980.1 47490.2 " />
<path d="M38999.9 47490.2 A510 510 0.0 0 0 37980.1 47490.2 " />
<path d="M37999.9 47490.8 A480 480 0.0 0 0 37040.1 47490.8 " />
<path d="M37000 47500
L36000 47500
" />
<path d="M41000 47500
L42000 47500
" />
<path d="M38940 45690
L38750 45690
L38750 45290
" />
<path d="M39270 45690
L39050 45690
" />
<path d="M39160 45690
L39160 45290
L39120 45350
L39080 45390
L39050 45410
" />
<path d="M38310 46200
L38310 46470
" />
<path d="M38210 46050
L38120 46340
L38360 46340
" />
<path d="M38480 46070
L38740 46070
L38570 46470
" />
<path d="M38970 46070
L39010 46070
L39050 46090
L39070 46110
L39090 46150
L39100 46220
L39100 46320
L39090 46390
L39070 46430
L39050 46450
L39010 46470
L38970 46470
L38930 46450
L38910 46430
L38900 46390
L38880 46320
L38880 46220
L38900 46150
L38910 46110
L38930 46090
L38970 46070
" />
<path d="M39280 46200
L39280 46470
" />
<path d="M39280 46240
L39290 46220
L39330 46200
L39390 46200
L39430 46220
L39450 46260
L39450 46470
" />
<path d="M39640 46470
L39640 46070
" />
<path d="M39640 46260
L39860 46260
" />
<path d="M39860 46470
L39860 46070
" />
</g>
<g style="fill:#000000; fill-opacity:0.0; 
stroke:#000000; stroke-width:0; stroke-opacity:1; 
stroke-linecap:round; stroke-linejoin:round;">
</g>
<g style="fill:#000000; fill-opacity:0.0; 
stroke:#000000; stroke-width:120; stroke-opacity:1; 
stroke-linecap:round; stroke-linejoin:round;">
<polyline fill="none;"
points="45200,46500
45200,48500
" /> 
<polyline fill="none;"
points="45800,46500
45800,48500
" /> 
<polyline fill="none;"
points="44600,46600
46250,48250
" /> 
</g>
<g style="fill:#000000; fill-opacity:1.0; 
stroke:#000000; stroke-width:60; stroke-opacity:1; 
stroke-linecap:round; stroke-linejoin:round;">
<polyline style="fill-rule:evenodd;"
points="46500,48000
46500,48500
46000,48500
" /> 
</g>
<g style="fill:#000000; fill-opacity:0.0; 
stroke:#000000; stroke-width:60; stroke-opacity:1; 
stroke-linecap:round; stroke-linejoin:round;">
<path d="M45800 47500
L47500 47500
" />
<path d="M46760 47380
L46540 47380
" />
<path d="M46650 47380
L46650 46980
L46610 47040
L46570 47080
L46540 47100
" />
<path d="M45200 47500
L43500 47500
" />
<path d="M44240 47020
L44260 47000
L44290 46980
L44390 46980
L44430 47000
L44450 47020
L44460 47060
L44460 47100
L44450 47150
L44220 47380
L44460 47380
" />
<path d="M45410 45020
L45390 45040
L45320 45070
L45270 45070
L45200 45040
L45150 44990
L45130 44950
L45110 44850
L45110 44780
L45130 44690
L45150 44640
L45200 44590
L45270 44570
L45320 44570
L45390 44590
L45410 44610
" />
<path d="M45890 45070
L45610 45070
" />
<path d="M45750 45070
L45750 44570
L45700 44640
L45650 44690
L45610 44710
" />
<path d="M44130 45530
L44150 45510
L44200 45490
L44320 45490
L44360 45510
L44390 45530
L44410 45580
L44410 45630
L44390 45700
L44100 45990
L44410 45990
" />
<path d="M44630 45800
L45010 45800
" />
<path d="M45510 45990
L45230 45990
" />
<path d="M45370 45990
L45370 45490
L45320 45560
L45270 45610
L45230 45630
" />
<path d="M45820 45490
L45870 45490
L45920 45510
L45940 45530
L45970 45580
L45990 45680
L45990 45800
L45970 45890
L45940 45940
L45920 45960
L45870 45990
L45820 45990
L45780 45960
L45750 45940
L45730 45890
L45710 45800
L45710 45680
L45730 45580
L45750 45530
L45780 45510
L45820 45490
" />
<path d="M46210 45650
L46210 46150
" />
<path d="M46210 45680
L46260 45650
L46350 45650
L46400 45680
L46420 45700
L46450 45750
L46450 45890
L46420 45940
L46400 45960
L46350 45990
L46260 45990
L46210 45960
" />
<path d="M46830 45720
L46660 45720
" />
<path d="M46660 45990
L46660 45490
L46900 45490
" />
<path d="M34000 47500
L36000 47500
" />
</g>
<g style="fill:#000000; fill-opacity:0.0; 
stroke:#000000; stroke-width:0; stroke-opacity:1; 
stroke-linecap:round; stroke-linejoin:round;">
</g>
<g style="fill:#000000; fill-opacity:0.0; 
stroke:#000000; stroke-width:200; stroke-opacity:1; 
stroke-linecap:round; stroke-linejoin:round;">
<polyline fill="none;"
points="48200,51300
49800,51300
" /> 
<polyline fill="none;"
points="48200,50700
49800,50700
" /> 
</g>
<g style="fill:#000000; fill-opacity:0.0; 
stroke:#000000; stroke-width:60; stroke-opacity:1; 
stroke-linecap:round; stroke-linejoin:round;">
<path d="M49000 50700
L49000 49000
" />
<path d="M49000 51300
L49000 53000
" />
<path d="M50470 50780
L50450 50800
L50400 50820
L50360 50820
L50300 50800
L50260 50760
L50250 50730
L50230 50650
L50230 50590
L50250 50520
L50260 50480
L50300 50440
L50360 50420
L50400 50420
L50450 50440
L50470 50460
" />
<path d="M50610 50420
L50850 50420
L50720 50570
L50780 50570
L50820 50590
L50840 50610
L50850 50650
L50850 50740
L50840 50780
L50820 50800
L50780 50820
L50660 50820
L50630 50800
L50610 50780
" />
<path d="M50210 51200
L50450 51200
L50320 51350
L50380 51350
L50420 51370
L50440 51390
L50450 51430
L50450 51520
L50440 51560
L50420 51580
L50380 51600
L50260 51600
L50230 51580
L50210 51560
" />
<path d="M50590 51200
L50830 51200
L50700 51350
L50760 51350
L50800 51370
L50820 51390
L50830 51430
L50830 51520
L50820 51560
L50800 51580
L50760 51600
L50640 51600
L50610 51580
L50590 51560
" />
<path d="M51010 51330
L51010 51730
" />
<path d="M51010 51350
L51040 51330
L51120 51330
L51160 51350
L51180 51370
L51200 51410
L51200 51520
L51180 51560
L51160 51580
L51120 51600
L51040 51600
L51010 51580
" />
<path d="M51500 51390
L51370 51390
" />
<path d="M51370 51600
L51370 51200
L51560 51200
" />
</g>
<g style="fill:#000000; fill-opacity:0.0; 
stroke:#000000; stroke-width:0; stroke-opacity:1; 
stroke-linecap:round; stroke-linejoin:round;">
</g>
<g style="fill:#000000; fill-opacity:0.0; 
stroke:#000000; stroke-width:60; stroke-opacity:1; 
stroke-linecap:round; stroke-linejoin:round;">
<path d="M55499.9 47490.4 A500 500 0.0 0 0 54500.1 47490.4 " />
<path d="M54499.9 47490.2 A510 510 0.0 0 0 53480.1 47490.2 " />
<path d="M53499.9 47490.2 A510 510 0.0 0 0 52480.1 47490.2 " />
<path d="M52499.9 47490.8 A480 480 0.0 0 0 51540.1 47490.8 " />
<path d="M51500 47500
L50500 47500
" />
<path d="M55500 47500
L56500 47500
" />
<path d="M53440 45690
L53250 45690
L53250 45290
" />
<path d="M53550 45330
L53570 45310
L53600 45290
L53700 45290
L53740 45310
L53760 45330
L53770 45370
L53770 45410
L53760 45460
L53530 45690
L53770 45690
" />
<path d="M52810 46200
L52810 46470
" />
<path d="M52710 46050
L52620 46340
L52860 46340
" />
<path d="M52980 46070
L53240 46070
L53070 46470
" />
<path d="M53470 46070
L53510 46070
L53550 46090
L53570 46110
L53590 46150
L53600 46220
L53600 46320
L53590 46390
L53570 46430
L53550 46450
L53510 46470
L53470 46470
L53430 46450
L53410 46430
L53400 46390
L53380 46320
L53380 46220
L53400 46150
L53410 46110
L53430 46090
L53470 46070
" />
<path d="M53780 46200
L53780 46470
" />
<path d="M53780 46240
L53790 46220
L53830 46200
L53890 46200
L53930 46220
L53950 46260
L53950 46470
" />
<path d="M54140 46470
L54140 46070
" />
<path d="M54140 46260
L54360 46260
" />
<path d="M54360 46470
L54360 46070
" />
</g>
<g style="fill:#000000; fill-opacity:0.0; 
stroke:#000000; stroke-width:0; stroke-opacity:1; 
stroke-linecap:round; stroke-linejoin:round;">
</g>
<g style="fill:#000000; fill-opacity:0.0; 
stroke:#000000; stroke-width:120; stroke-opacity:1; 
stroke-linecap:round; stroke-linejoin:round;">
<polyline fill="none;"
points="59700,46500
59700,48500
" /> 
<polyline fill="none;"
points="60300,46500
60300,48500
" /> 
<polyline fill="none;"
points="59100,46600
60750,48250
" /> 
</g>
<g style="fill:#000000; fill-opacity:1.0; 
stroke:#000000; stroke-width:60; stroke-opacity:1; 
stroke-linecap:round; stroke-linejoin:round;">
<polyline style="fill-rule:evenodd;"
points="61000,48000
61000,48500
60500,48500
" /> 
</g>
<g style="fill:#000000; fill-opacity:0.0; 
stroke:#000000; stroke-width:60; stroke-opacity:1; 
stroke-linecap:round; stroke-linejoin:round;">
<path d="M60300 47500
L62000 47500
" />
<path d="M61260 47380
L61040 47380
" />
<path d="M61150 47380
L61150 46980
L61110 47040
L61070 47080
L61040 47100
" />
<path d="M59700 47500
L58000 47500
" />
<path d="M58740 47020
L58760 47000
L58790 46980
L58890 46980
L58930 47000
L58950 47020
L58960 47060
L58960 47100
L58950 47150
L58720 47380
L58960 47380
" />
<path d="M59910 45020
L59890 45040
L59820 45070
L59770 45070
L59700 45040
L59650 44990
L59630 44950
L59610 44850
L59610 44780
L59630 44690
L59650 44640
L59700 44590
L59770 44570
L59820 44570
L59890 44590
L59910 44610
" />
<path d="M60340 44730
L60340 45070
" />
<path d="M60220 44540
L60110 44900
L60410 44900
" />
<path d="M58700 45530
L58720 45510
L58770 45490
L58890 45490
L58930 45510
L58960 45530
L58980 45580
L58980 45630
L58960 45700
L58670 45990
L58980 45990
" />
<path d="M59200 45800
L59580 45800
" />
<path d="M60080 45990
L59800 45990
" />
<path d="M59940 45990
L59940 45490
L59890 45560
L59840 45610
L59800 45630
" />
<path d="M60390 45490
L60440 45490
L60490 45510
L60510 45530
L60540 45580
L60560 45680
L60560 45800
L60540 45890
L60510 45940
L60490 45960
L60440 45990
L60390 45990
L60350 45960
L60320 45940
L60300 45890
L60280 45800
L60280 45680
L60300 45580
L60320 45530
L60350 45510
L60390 45490
" />
<path d="M60780 45650
L60780 46150
" />
<path d="M60780 45680
L60830 45650
L60920 45650
L60970 45680
L60990 45700
L61020 45750
L61020 45890
L60990 45940
L60970 45960
L60920 45990
L60830 45990
L60780 45960
" />
<path d="M61160 45650
L61350 45650
" />
<path d="M61230 45990
L61230 45560
L61250 45510
L61300 45490
L61350 45490
" />
<path d="M47500 47500
L50500 47500
" />
<path d="M49000 49000
L49000 47500
" />
</g>
<g style="fill:#000000; fill-opacity:0.0; 
stroke:#000000; stroke-width:0; stroke-opacity:1; 
stroke-linecap:round; stroke-linejoin:round;">
</g>
<g style="fill:#000000; fill-opacity:1.0; 
stroke:#000000; stroke-width:100; stroke-opacity:1; 
stroke-linecap:round; stroke-linejoin:round;">
<circle cx="49000" cy="47500" r="200" /> 
</g>
<g style="fill:#000000; fill-opacity:1.0; 
stroke:#000000; stroke-width:0; stroke-opacity:1; 
stroke-linecap:round; stroke-linejoin:round;">
</g>
<g style="fill:#000000; fill-opacity:0.0; 
stroke:#000000; stroke-width:100; stroke-opacity:1; 
stroke-linecap:round; stroke-linejoin:round;">
<circle cx="68000" cy="47500" r="1110" /> 
</g>
<g style="fill:#000000; fill-opacity:0.0; 
stroke:#000000; stroke-width:60; stroke-opacity:1; 
stroke-linecap:round; stroke-linejoin:round;">
<polyline fill="none;"
points="67500,47500
68500,46500
" /> 
</g>
<g style="fill:#000000; fill-opacity:0.0; 
stroke:#000000; stroke-width:100; stroke-opacity:1; 
stroke-linecap:round; stroke-linejoin:round;">
<polyline fill="none;"
points="67500,46750
67500,48250
67500,48250
" /> 
</g>
<g style="fill:#000000; fill-opacity:0.0; 
stroke:#000000; stroke-width:60; stroke-opacity:1; 
stroke-linecap:round; stroke-linejoin:round;">
<polyline fill="none;"
points="68000,48000
67500,47500
67500,47500
" /> 
<polyline fill="none;"
points="68400,48400
68500,48500
68500,48500
" /> 
</g>
<g style="fill:#000000; fill-opacity:1.0; 
stroke:#000000; stroke-width:60; stroke-opacity:1; 
stroke-linecap:round; stroke-linejoin:round;">
<polyline style="fill-rule:evenodd;"
points="68400,48400
68200,47800
67800,48200
68400,48400
68400,48400
" /> 
</g>
<g style="fill:#000000; fill-opacity:0.0; 
stroke:#000000; stroke-width:60; stroke-opacity:1; 
stroke-linecap:round; stroke-linejoin:round;">
<path d="M68500 48500
L68500 49500
" />
<path d="M68170 49080
L68170 48950
" />
<path d="M68380 48890
L68380 49080
L67980 49080
L67980 48890
" />
<path d="M68980 48890
L68980 49110
" />
<path d="M68980 49000
L68580 49000
L68640 49040
L68680 49080
L68700 49110
" />
<path d="M67500 47500
L65500 47500
" />
<path d="M66530 47170
L66590 47190
L66600 47210
L66620 47250
L66620 47300
L66600 47340
L66590 47360
L66550 47380
L66400 47380
L66400 46980
L66530 46980
L66570 47000
L66590 47020
L66600 47060
L66600 47100
L66590 47130
L66570 47150
L66530 47170
L66400 47170
" />
<path d="M66390 47620
L66410 47600
L66440 47580
L66540 47580
L66580 47600
L66600 47620
L66610 47660
L66610 47700
L66600 47750
L66370 47980
L66610 47980
" />
<path d="M68500 46500
L68500 45500
" />
<path d="M68340 45880
L68360 45900
L68380 45950
L68380 45990
L68360 46050
L68320 46090
L68290 46100
L68210 46120
L68150 46120
L68080 46100
L68040 46090
L68000 46050
L67980 45990
L67980 45950
L68000 45900
L68020 45880
" />
<path d="M68580 46130
L68580 45890
L68730 46020
L68730 45960
L68750 45920
L68770 45900
L68810 45890
L68900 45890
L68940 45900
L68960 45920
L68980 45960
L68980 46080
L68960 46110
L68940 46130
" />
<path d="M69860 47340
L69810 47320
L69770 47270
L69700 47200
L69650 47180
L69600 47180
" />
<path d="M69620 47300
L69580 47270
L69530 47220
L69510 47130
L69510 46960
L69530 46870
L69580 46820
L69620 46800
L69720 46800
L69770 46820
L69810 46870
L69840 46960
L69840 47130
L69810 47220
L69770 47270
L69720 47300
L69620 47300
" />
<path d="M70310 47300
L70030 47300
" />
<path d="M70170 47300
L70170 46800
L70120 46870
L70070 46920
L70030 46940
" />
<path d="M69700 47950
L69770 47980
L69790 48000
L69810 48050
L69810 48120
L69790 48170
L69770 48190
L69720 48220
L69530 48220
L69530 47720
L69700 47720
L69740 47740
L69770 47760
L69790 47810
L69790 47860
L69770 47910
L69740 47930
L69700 47950
L69530 47950
" />
<path d="M70200 47950
L70030 47950
" />
<path d="M70030 48220
L70030 47720
L70270 47720
" />
<path d="M70720 47740
L70670 47720
L70600 47720
L70530 47740
L70480 47790
L70460 47840
L70440 47930
L70440 48000
L70460 48100
L70480 48140
L70530 48190
L70600 48220
L70650 48220
L70720 48190
L70740 48170
L70740 48000
L70650 48000
" />
<path d="M71200 47720
L70960 47720
L70940 47950
L70960 47930
L71010 47910
L71130 47910
L71170 47930
L71200 47950
L71220 48000
L71220 48120
L71200 48170
L71170 48190
L71130 48220
L71010 48220
L70960 48190
L70940 48170
" />
<path d="M71650 47880
L71650 48220
" />
<path d="M71530 47690
L71420 48050
L71720 48050
" />
<path d="M72010 47720
L72060 47720
L72110 47740
L72130 47760
L72160 47810
L72180 47910
L72180 48030
L72160 48120
L72130 48170
L72110 48190
L72060 48220
L72010 48220
L71970 48190
L71940 48170
L71920 48120
L71900 48030
L71900 47910
L71920 47810
L71940 47760
L71970 47740
L72010 47720
" />
<path d="M72350 47720
L72470 48220
L72570 47860
L72660 48220
L72780 47720
" />
<path d="M62000 47500
L65500 47500
" />
<path d="M49000 53000
L49000 54500
" />
<path d="M68500 49500
L68500 54500
" />
</g>
<g style="fill:#000000; fill-opacity:0.0; 
stroke:#000000; stroke-width:0; stroke-opacity:1; 
stroke-linecap:round; stroke-linejoin:round;">
</g>
<g style="fill:#000000; fill-opacity:0.0; 
stroke:#000000; stroke-width:120; stroke-opacity:1; 
stroke-linecap:round; stroke-linejoin:round;">
<rect x="63100" y="41000" width="800" height="3000" rx="0" />
</g>
<g style="fill:#000000; fill-opacity:0.0; 
stroke:#000000; stroke-width:60; stroke-opacity:1; 
stroke-linecap:round; stroke-linejoin:round;">
<path d="M63500 41000
L63500 40000
" />
<path d="M63500 44000
L63500 45000
" />
<path d="M64530 42320
L64400 42130
" />
<path d="M64310 42320
L64310 41920
L64460 41920
L64500 41940
L64510 41960
L64530 42000
L64530 42050
L64510 42090
L64500 42110
L64460 42130
L64310 42130
" />
<path d="M64910 42320
L64690 42320
" />
<path d="M64800 42320
L64800 41920
L64760 41980
L64720 42020
L64690 42040
" />
<path d="M64510 43100
L64290 43100
" />
<path d="M64400 43100
L64400 42700
L64360 42760
L64320 42800
L64290 42820
" />
<path d="M64690 43100
L64690 42700
" />
<path d="M64720 42950
L64840 43100
" />
<path d="M64840 42830
L64690 42990
" />
<path d="M63500 47500
L63500 45000
" />
</g>
<g style="fill:#000000; fill-opacity:0.0; 
stroke:#000000; stroke-width:0; stroke-opacity:1; 
stroke-linecap:round; stroke-linejoin:round;">
</g>
<g style="fill:#000000; fill-opacity:1.0; 
stroke:#000000; stroke-width:100; stroke-opacity:1; 
stroke-linecap:round; stroke-linejoin:round;">
<circle cx="63500" cy="47500" r="200" /> 
</g>
<g style="fill:#000000; fill-opacity:1.0; 
stroke:#000000; stroke-width:0; stroke-opacity:1; 
stroke-linecap:round; stroke-linejoin:round;">
</g>
<g style="fill:#000000; fill-opacity:0.0; 
stroke:#000000; stroke-width:200; stroke-opacity:1; 
stroke-linecap:round; stroke-linejoin:round;">
<polyline fill="none;"
points="69700,40300
71300,40300
" /> 
<polyline fill="none;"
points="69700,39700
71300,39700
" /> 
</g>
<g style="fill:#000000; fill-opacity:0.0; 
stroke:#000000; stroke-width:60; stroke-opacity:1; 
stroke-linecap:round; stroke-linejoin:round;">
<path d="M70500 39700
L70500 38000
" />
<path d="M70500 40300
L70500 42000
" />
<path d="M71970 39780
L71950 39800
L71900 39820
L71860 39820
L71800 39800
L71760 39760
L71750 39730
L71730 39650
L71730 39590
L71750 39520
L71760 39480
L71800 39440
L71860 39420
L71900 39420
L71950 39440
L71970 39460
" />
<path d="M72320 39420
L72240 39420
L72200 39440
L72180 39460
L72150 39520
L72130 39590
L72130 39740
L72150 39780
L72160 39800
L72200 39820
L72280 39820
L72320 39800
L72340 39780
L72350 39740
L72350 39650
L72340 39610
L72320 39590
L72280 39570
L72200 39570
L72160 39590
L72150 39610
L72130 39650
" />
<path d="M71950 40600
L71730 40600
" />
<path d="M71840 40600
L71840 40200
L71800 40260
L71760 40300
L71730 40320
" />
<path d="M72200 40200
L72240 40200
L72280 40220
L72300 40240
L72320 40280
L72330 40350
L72330 40450
L72320 40520
L72300 40560
L72280 40580
L72240 40600
L72200 40600
L72160 40580
L72140 40560
L72130 40520
L72110 40450
L72110 40350
L72130 40280
L72140 40240
L72160 40220
L72200 40200
" />
<path d="M72510 40330
L72510 40600
" />
<path d="M72510 40370
L72520 40350
L72560 40330
L72620 40330
L72660 40350
L72680 40390
L72680 40600
" />
<path d="M73000 40390
L72870 40390
" />
<path d="M72870 40600
L72870 40200
L73060 40200
" />
<path d="M63500 40000
L63500 36000
" />
<path d="M63500 36000
L70500 36000
" />
<path d="M70500 36000
L70500 38000
" />
<path d="M66500 37500
L66500 36000
" />
</g>
<g style="fill:#000000; fill-opacity:0.0; 
stroke:#000000; stroke-width:0; stroke-opacity:1; 
stroke-linecap:round; stroke-linejoin:round;">
</g>
<g style="fill:#000000; fill-opacity:1.0; 
stroke:#000000; stroke-width:100; stroke-opacity:1; 
stroke-linecap:round; stroke-linejoin:round;">
<circle cx="66500" cy="36000" r="200" /> 
</g>
<g style="fill:#000000; fill-opacity:1.0; 
stroke:#000000; stroke-width:60; stroke-opacity:1; 
stroke-linecap:round; stroke-linejoin:round;">
</g>
<g style="fill:#000000; fill-opacity:0.0; 
stroke:#000000; stroke-width:60; stroke-opacity:1; 
stroke-linecap:round; stroke-linejoin:round;">
<path d="M66500 42500
L66500 43000
" />
<path d="M66500 43000
L70500 43000
" />
<path d="M70500 43000
L70500 42000
" />
<path d="M68500 43000
L68500 45500
" />
</g>
<g style="fill:#000000; fill-opacity:0.0; 
stroke:#000000; stroke-width:0; stroke-opacity:1; 
stroke-linecap:round; stroke-linejoin:round;">
</g>
<g style="fill:#000000; fill-opacity:1.0; 
stroke:#000000; stroke-width:100; stroke-opacity:1; 
stroke-linecap:round; stroke-linejoin:round;">
<circle cx="68500" cy="43000" r="200" /> 
</g>
<g style="fill:#000000; fill-opacity:1.0; 
stroke:#000000; stroke-width:0; stroke-opacity:1; 
stroke-linecap:round; stroke-linejoin:round;">
</g>
<g style="fill:#000000; fill-opacity:0.0; 
stroke:#000000; stroke-width:120; stroke-opacity:1; 
stroke-linecap:round; stroke-linejoin:round;">
<rect x="66100" y="38500" width="800" height="3000" rx="0" />
</g>
<g style="fill:#000000; fill-opacity:0.0; 
stroke:#000000; stroke-width:60; stroke-opacity:1; 
stroke-linecap:round; stroke-linejoin:round;">
<path d="M66500 38500
L66500 37500
" />
<path d="M66500 41500
L66500 42500
" />
<path d="M67530 39820
L67400 39630
" />
<path d="M67310 39820
L67310 39420
L67460 39420
L67500 39440
L67510 39460
L67530 39500
L67530 39550
L67510 39590
L67500 39610
L67460 39630
L67310 39630
" />
<path d="M67690 39460
L67710 39440
L67740 39420
L67840 39420
L67880 39440
L67900 39460
L67910 39500
L67910 39540
L67900 39590
L67670 39820
L67910 39820
" />
<path d="M67480 40330
L67480 40600
" />
<path d="M67380 40180
L67290 40470
L67530 40470
" />
<path d="M67650 40200
L67910 40200
L67740 40600
" />
<path d="M68070 40600
L68070 40200
" />
<path d="M68100 40450
L68220 40600
" />
<path d="M68220 40330
L68070 40490
" />
</g>
<g style="fill:#000000; fill-opacity:0.0; 
stroke:#000000; stroke-width:0; stroke-opacity:1; 
stroke-linecap:round; stroke-linejoin:round;">
</g>
<g style="fill:#000000; fill-opacity:0.0; 
stroke:#000000; stroke-width:60; stroke-opacity:1; 
stroke-linecap:round; stroke-linejoin:round;">
<polyline fill="none;"
points="68000,54500
68500,55000
69000,54500
68000,54500
" /> 
</g>
<g style="fill:#000000; fill-opacity:0.0; 
stroke:#000000; stroke-width:0; stroke-opacity:1; 
stroke-linecap:round; stroke-linejoin:round;">
</g>
<g style="fill:#000000; fill-opacity:0.0; 
stroke:#000000; stroke-width:60; stroke-opacity:1; 
stroke-linecap:round; stroke-linejoin:round;">
<polyline fill="none;"
points="48500,54500
49000,55000
49500,54500
48500,54500
" /> 
<path d="M68500 44500
L77000 44500
" />
</g>
<g style="fill:#000000; fill-opacity:0.0; 
stroke:#000000; stroke-width:0; stroke-opacity:1; 
stroke-linecap:round; stroke-linejoin:round;">
</g>
<g style="fill:#000000; fill-opacity:1.0; 
stroke:#000000; stroke-width:100; stroke-opacity:1; 
stroke-linecap:round; stroke-linejoin:round;">
<circle cx="68500" cy="44500" r="200" /> 
</g>
<g style="fill:#000000; fill-opacity:1.0; 
stroke:#000000; stroke-width:0; stroke-opacity:1; 
stroke-linecap:round; stroke-linejoin:round;">
</g>
<g style="fill:#000000; fill-opacity:0.0; 
stroke:#000000; stroke-width:60; stroke-opacity:1; 
stroke-linecap:round; stroke-linejoin:round;">
<path d="M74009.6 41999.9 A500 500 0.0 0 0 74009.6 41000.1 " />
<path d="M74009.8 40999.9 A510 510 0.0 0 0 74009.8 39980.1 " />
<path d="M74009.8 39999.9 A510 510 0.0 0 0 74009.8 38980.1 " />
<path d="M74009.2 38999.9 A480 480 0.0 0 0 74009.2 38040.1 " />
<path d="M74000 38000
L74000 37000
" />
<path d="M74000 42000
L74000 43000
" />
<path d="M75080 39820
L74890 39820
L74890 39420
" />
<path d="M75170 39420
L75410 39420
L75280 39570
L75340 39570
L75380 39590
L75400 39610
L75410 39650
L75410 39740
L75400 39780
L75380 39800
L75340 39820
L75220 39820
L75190 39800
L75170 39780
" />
<path d="M75090 40600
L74870 40600
" />
<path d="M74980 40600
L74980 40200
L74940 40260
L74900 40300
L74870 40320
" />
<path d="M75270 40560
L75280 40580
L75270 40600
L75250 40580
L75270 40560
L75270 40600
" />
<path d="M75650 40200
L75460 40200
L75440 40390
L75460 40370
L75490 40350
L75590 40350
L75630 40370
L75650 40390
L75660 40430
L75660 40520
L75650 40560
L75630 40580
L75590 40600
L75490 40600
L75460 40580
L75440 40560
" />
<path d="M76010 40330
L76010 40600
" />
<path d="M75840 40330
L75840 40540
L75850 40580
L75890 40600
L75950 40600
L75990 40580
L76010 40560
" />
<path d="M76200 40600
L76200 40200
" />
<path d="M76200 40390
L76420 40390
" />
<path d="M76420 40600
L76420 40200
" />
<path d="M74000 44500
L74000 43000
" />
</g>
<g style="fill:#000000; fill-opacity:0.0; 
stroke:#000000; stroke-width:0; stroke-opacity:1; 
stroke-linecap:round; stroke-linejoin:round;">
</g>
<g style="fill:#000000; fill-opacity:1.0; 
stroke:#000000; stroke-width:100; stroke-opacity:1; 
stroke-linecap:round; stroke-linejoin:round;">
<circle cx="74000" cy="44500" r="200" /> 
</g>
<g style="fill:#000000; fill-opacity:1.0; 
stroke:#000000; stroke-width:60; stroke-opacity:1; 
stroke-linecap:round; stroke-linejoin:round;">
</g>
<g style="fill:#000000; fill-opacity:0.0; 
stroke:#000000; stroke-width:60; stroke-opacity:1; 
stroke-linecap:round; stroke-linejoin:round;">
<path d="M74000 33000
L74000 37000
" />
</g>
<g style="fill:#000000; fill-opacity:0.0; 
stroke:#000000; stroke-width:0; stroke-opacity:1; 
stroke-linecap:round; stroke-linejoin:round;">
</g>
<g style="fill:#000000; fill-opacity:0.0; 
stroke:#000000; stroke-width:200; stroke-opacity:1; 
stroke-linecap:round; stroke-linejoin:round;">
<polyline fill="none;"
points="78700,43700
78700,45300
" /> 
<polyline fill="none;"
points="79300,43700
79300,45300
" /> 
</g>
<g style="fill:#000000; fill-opacity:0.0; 
stroke:#000000; stroke-width:60; stroke-opacity:1; 
stroke-linecap:round; stroke-linejoin:round;">
<path d="M79300 44500
L81000 44500
" />
<path d="M78700 44500
L77000 44500
" />
<path d="M78930 42350
L78910 42370
L78860 42390
L78820 42390
L78760 42370
L78720 42330
L78710 42300
L78690 42220
L78690 42160
L78710 42090
L78720 42050
L78760 42010
L78820 41990
L78860 41990
L78910 42010
L78930 42030
" />
<path d="M79120 42390
L79200 42390
L79240 42370
L79260 42350
L79300 42300
L79310 42220
L79310 42070
L79300 42030
L79280 42010
L79240 41990
L79160 41990
L79120 42010
L79110 42030
L79090 42070
L79090 42160
L79110 42200
L79120 42220
L79160 42240
L79240 42240
L79280 42220
L79300 42200
L79310 42160
" />
<path d="M78450 42770
L78370 42770
L78330 42790
L78310 42810
L78280 42870
L78260 42940
L78260 43090
L78280 43130
L78290 43150
L78330 43170
L78410 43170
L78450 43150
L78470 43130
L78480 43090
L78480 43000
L78470 42960
L78450 42940
L78410 42920
L78330 42920
L78290 42940
L78280 42960
L78260 43000
" />
<path d="M78660 43130
L78670 43150
L78660 43170
L78640 43150
L78660 43130
L78660 43170
" />
<path d="M78900 42940
L78860 42920
L78850 42900
L78830 42870
L78830 42850
L78850 42810
L78860 42790
L78900 42770
L78980 42770
L79020 42790
L79040 42810
L79050 42850
L79050 42870
L79040 42900
L79020 42920
L78980 42940
L78900 42940
L78860 42960
L78850 42980
L78830 43020
L78830 43090
L78850 43130
L78860 43150
L78900 43170
L78980 43170
L79020 43150
L79040 43130
L79050 43090
L79050 43020
L79040 42980
L79020 42960
L78980 42940
" />
<path d="M79230 42900
L79230 43300
" />
<path d="M79230 42920
L79260 42900
L79340 42900
L79380 42920
L79400 42940
L79420 42980
L79420 43090
L79400 43130
L79380 43150
L79340 43170
L79260 43170
L79230 43150
" />
<path d="M79720 42960
L79590 42960
" />
<path d="M79590 43170
L79590 42770
L79780 42770
" />
</g>
<g style="fill:#000000; fill-opacity:0.0; 
stroke:#000000; stroke-width:0; stroke-opacity:1; 
stroke-linecap:round; stroke-linejoin:round;">
</g>
<g style="fill:#000000; fill-opacity:0.0; 
stroke:#000000; stroke-width:120; stroke-opacity:1; 
stroke-linecap:round; stroke-linejoin:round;">
<rect x="73600" y="29000" width="800" height="3000" rx="0" />
</g>
<g style="fill:#000000; fill-opacity:0.0; 
stroke:#000000; stroke-width:60; stroke-opacity:1; 
stroke-linecap:round; stroke-linejoin:round;">
<path d="M74000 29000
L74000 28000
" />
<path d="M74000 32000
L74000 33000
" />
<path d="M75030 30320
L74900 30130
" />
<path d="M74810 30320
L74810 29920
L74960 29920
L75000 29940
L75010 29960
L75030 30000
L75030 30050
L75010 30090
L75000 30110
L74960 30130
L74810 30130
" />
<path d="M75170 29920
L75410 29920
L75280 30070
L75340 30070
L75380 30090
L75400 30110
L75410 30150
L75410 30240
L75400 30280
L75380 30300
L75340 30320
L75220 30320
L75190 30300
L75170 30280
" />
<path d="M74860 30870
L74820 30850
L74810 30830
L74790 30800
L74790 30780
L74810 30740
L74820 30720
L74860 30700
L74940 30700
L74980 30720
L75000 30740
L75010 30780
L75010 30800
L75000 30830
L74980 30850
L74940 30870
L74860 30870
L74820 30890
L74810 30910
L74790 30950
L74790 31020
L74810 31060
L74820 31080
L74860 31100
L74940 31100
L74980 31080
L75000 31060
L75010 31020
L75010 30950
L75000 30910
L74980 30890
L74940 30870
" />
<path d="M75170 30740
L75190 30720
L75220 30700
L75320 30700
L75360 30720
L75380 30740
L75390 30780
L75390 30820
L75380 30870
L75150 31100
L75390 31100
" />
</g>
<g style="fill:#000000; fill-opacity:0.0; 
stroke:#000000; stroke-width:0; stroke-opacity:1; 
stroke-linecap:round; stroke-linejoin:round;">
</g>
<g style="fill:#000000; fill-opacity:0.0; 
stroke:#000000; stroke-width:200; stroke-opacity:1; 
stroke-linecap:round; stroke-linejoin:round;">
<polyline fill="none;"
points="76700,33200
76700,34800
" /> 
<polyline fill="none;"
points="77300,33200
77300,34800
" /> 
</g>
<g style="fill:#000000; fill-opacity:0.0; 
stroke:#000000; stroke-width:60; stroke-opacity:1; 
stroke-linecap:round; stroke-linejoin:round;">
<path d="M77300 34000
L79000 34000
" />
<path d="M76700 34000
L75000 34000
" />
<path d="M76930 31850
L76910 31870
L76860 31890
L76820 31890
L76760 31870
L76720 31830
L76710 31800
L76690 31720
L76690 31660
L76710 31590
L76720 31550
L76760 31510
L76820 31490
L76860 31490
L76910 31510
L76930 31530
" />
<path d="M77160 31660
L77120 31640
L77110 31620
L77090 31590
L77090 31570
L77110 31530
L77120 31510
L77160 31490
L77240 31490
L77280 31510
L77300 31530
L77310 31570
L77310 31590
L77300 31620
L77280 31640
L77240 31660
L77160 31660
L77120 31680
L77110 31700
L77090 31740
L77090 31810
L77110 31850
L77120 31870
L77160 31890
L77240 31890
L77280 31870
L77300 31850
L77310 31810
L77310 31740
L77300 31700
L77280 31680
L77240 31660
" />
<path d="M76350 32270
L76270 32270
L76230 32290
L76210 32310
L76180 32370
L76160 32440
L76160 32590
L76180 32630
L76190 32650
L76230 32670
L76310 32670
L76350 32650
L76370 32630
L76380 32590
L76380 32500
L76370 32460
L76350 32440
L76310 32420
L76230 32420
L76190 32440
L76180 32460
L76160 32500
" />
<path d="M76610 32440
L76570 32420
L76560 32400
L76540 32370
L76540 32350
L76560 32310
L76570 32290
L76610 32270
L76690 32270
L76730 32290
L76750 32310
L76760 32350
L76760 32370
L76750 32400
L76730 32420
L76690 32440
L76610 32440
L76570 32460
L76560 32480
L76540 32520
L76540 32590
L76560 32630
L76570 32650
L76610 32670
L76690 32670
L76730 32650
L76750 32630
L76760 32590
L76760 32520
L76750 32480
L76730 32460
L76690 32440
" />
<path d="M77010 32270
L77050 32270
L77090 32290
L77110 32310
L77130 32350
L77140 32420
L77140 32520
L77130 32590
L77110 32630
L77090 32650
L77050 32670
L77010 32670
L76970 32650
L76950 32630
L76940 32590
L76920 32520
L76920 32420
L76940 32350
L76950 32310
L76970 32290
L77010 32270
" />
<path d="M77320 32400
L77320 32800
" />
<path d="M77320 32420
L77350 32400
L77430 32400
L77470 32420
L77490 32440
L77510 32480
L77510 32590
L77490 32630
L77470 32650
L77430 32670
L77350 32670
L77320 32650
" />
<path d="M77810 32460
L77680 32460
" />
<path d="M77680 32670
L77680 32270
L77870 32270
" />
</g>
<g style="fill:#000000; fill-opacity:0.0; 
stroke:#000000; stroke-width:0; stroke-opacity:1; 
stroke-linecap:round; stroke-linejoin:round;">
</g>
<g style="fill:#000000; fill-opacity:0.0; 
stroke:#000000; stroke-width:200; stroke-opacity:1; 
stroke-linecap:round; stroke-linejoin:round;">
<polyline fill="none;"
points="76700,25700
76700,27300
" /> 
<polyline fill="none;"
points="77300,25700
77300,27300
" /> 
</g>
<g style="fill:#000000; fill-opacity:0.0; 
stroke:#000000; stroke-width:60; stroke-opacity:1; 
stroke-linecap:round; stroke-linejoin:round;">
<path d="M77300 26500
L79000 26500
" />
<path d="M76700 26500
L75000 26500
" />
<path d="M76930 24350
L76910 24370
L76860 24390
L76820 24390
L76760 24370
L76720 24330
L76710 24300
L76690 24220
L76690 24160
L76710 24090
L76720 24050
L76760 24010
L76820 23990
L76860 23990
L76910 24010
L76930 24030
" />
<path d="M77070 23990
L77330 23990
L77160 24390
" />
<path d="M76350 24810
L76370 24790
L76400 24770
L76500 24770
L76540 24790
L76560 24810
L76570 24850
L76570 24890
L76560 24940
L76330 25170
L76570 25170
" />
<path d="M76820 24770
L76860 24770
L76900 24790
L76920 24810
L76940 24850
L76950 24920
L76950 25020
L76940 25090
L76920 25130
L76900 25150
L76860 25170
L76820 25170
L76780 25150
L76760 25130
L76750 25090
L76730 25020
L76730 24920
L76750 24850
L76760 24810
L76780 24790
L76820 24770
" />
<path d="M77130 24900
L77130 25170
" />
<path d="M77130 24940
L77140 24920
L77180 24900
L77240 24900
L77280 24920
L77300 24960
L77300 25170
" />
<path d="M77620 24960
L77490 24960
" />
<path d="M77490 25170
L77490 24770
L77680 24770
" />
<path d="M74000 34000
L75000 34000
" />
</g>
<g style="fill:#000000; fill-opacity:0.0; 
stroke:#000000; stroke-width:0; stroke-opacity:1; 
stroke-linecap:round; stroke-linejoin:round;">
</g>
<g style="fill:#000000; fill-opacity:1.0; 
stroke:#000000; stroke-width:100; stroke-opacity:1; 
stroke-linecap:round; stroke-linejoin:round;">
<circle cx="74000" cy="34000" r="200" /> 
</g>
<g style="fill:#000000; fill-opacity:1.0; 
stroke:#000000; stroke-width:60; stroke-opacity:1; 
stroke-linecap:round; stroke-linejoin:round;">
</g>
<g style="fill:#000000; fill-opacity:0.0; 
stroke:#000000; stroke-width:60; stroke-opacity:1; 
stroke-linecap:round; stroke-linejoin:round;">
<path d="M74000 22500
L74000 28000
" />
<path d="M74000 26500
L75000 26500
" />
</g>
<g style="fill:#000000; fill-opacity:0.0; 
stroke:#000000; stroke-width:0; stroke-opacity:1; 
stroke-linecap:round; stroke-linejoin:round;">
</g>
<g style="fill:#000000; fill-opacity:1.0; 
stroke:#000000; stroke-width:100; stroke-opacity:1; 
stroke-linecap:round; stroke-linejoin:round;">
<circle cx="74000" cy="26500" r="200" /> 
</g>
<g style="fill:#000000; fill-opacity:1.0; 
stroke:#000000; stroke-width:60; stroke-opacity:1; 
stroke-linecap:round; stroke-linejoin:round;">
</g>
<g style="fill:#000000; fill-opacity:0.0; 
stroke:#000000; stroke-width:60; stroke-opacity:1; 
stroke-linecap:round; stroke-linejoin:round;">
<path d="M79000 26500
L80000 26500
" />
<path d="M79000 34000
L80000 34000
" />
<path d="M80000 26500
L80000 36000
" />
</g>
<g style="fill:#000000; fill-opacity:0.0; 
stroke:#000000; stroke-width:0; stroke-opacity:1; 
stroke-linecap:round; stroke-linejoin:round;">
</g>
<g style="fill:#000000; fill-opacity:1.0; 
stroke:#000000; stroke-width:100; stroke-opacity:1; 
stroke-linecap:round; stroke-linejoin:round;">
<circle cx="80000" cy="34000" r="200" /> 
</g>
<g style="fill:#000000; fill-opacity:1.0; 
stroke:#000000; stroke-width:0; stroke-opacity:1; 
stroke-linecap:round; stroke-linejoin:round;">
</g>
<g style="fill:#000000; fill-opacity:0.0; 
stroke:#000000; stroke-width:60; stroke-opacity:1; 
stroke-linecap:round; stroke-linejoin:round;">
<polyline fill="none;"
points="79500,36000
80000,36500
80500,36000
79500,36000
" /> 
</g>
<g style="fill:#000000; fill-opacity:0.0; 
stroke:#000000; stroke-width:0; stroke-opacity:1; 
stroke-linecap:round; stroke-linejoin:round;">
</g>
<g style="fill:#000000; fill-opacity:0.0; 
stroke:#000000; stroke-width:60; stroke-opacity:1; 
stroke-linecap:round; stroke-linejoin:round;">
<circle cx="74000" cy="22000" r="200" /> 
<polyline fill="none;"
points="74000,22500
74000,22200
74000,22200
" /> 
</g>
<g style="fill:#000000; fill-opacity:0.0; 
stroke:#000000; stroke-width:50; stroke-opacity:1; 
stroke-linecap:round; stroke-linejoin:round;">
<path d="M73660 21080
L73760 21380
L73860 21080
" />
<path d="M74130 21350
L74120 21360
L74080 21380
L74050 21380
L74000 21360
L73980 21330
L73960 21300
L73950 21250
L73950 21200
L73960 21150
L73980 21120
L74000 21090
L74050 21080
L74080 21080
L74120 21090
L74130 21100
" />
<path d="M74430 21350
L74420 21360
L74380 21380
L74350 21380
L74300 21360
L74280 21330
L74260 21300
L74250 21250
L74250 21200
L74260 21150
L74280 21120
L74300 21090
L74350 21080
L74380 21080
L74420 21090
L74430 21100
" />
</g>
<g style="fill:#000000; fill-opacity:0.0; 
stroke:#000000; stroke-width:0; stroke-opacity:1; 
stroke-linecap:round; stroke-linejoin:round;">
</g>
<g style="fill:#000000; fill-opacity:0.0; 
stroke:#000000; stroke-width:60; stroke-opacity:1; 
stroke-linecap:round; stroke-linejoin:round;">
<circle cx="84500" cy="44500" r="310" /> 
<polyline fill="none;"
points="84200,44500
84000,44500
" /> 
<path d="M84000 44500
L83000 44500
" />
<path d="M85190 44710
L85190 44310
L85340 44310
L85380 44330
L85390 44350
L85410 44390
L85410 44440
L85390 44480
L85380 44500
L85340 44520
L85190 44520
" />
<path d="M85550 44310
L85790 44310
L85660 44460
L85720 44460
L85760 44480
L85780 44500
L85790 44540
L85790 44630
L85780 44670
L85760 44690
L85720 44710
L85600 44710
L85570 44690
L85550 44670
" />
<path d="M81000 44500
L83000 44500
" />
</g>
<g style="fill:#000000; fill-opacity:0.0; 
stroke:#000000; stroke-width:0; stroke-opacity:1; 
stroke-linecap:round; stroke-linejoin:round;">
</g>
<g style="fill:#000000; fill-opacity:0.0; 
stroke:#000000; stroke-width:100; stroke-opacity:1; 
stroke-linecap:round; stroke-linejoin:round;">
<rect x="47000" y="16000" width="5000" height="3000" rx="0" />
</g>
<g style="fill:#000000; fill-opacity:0.0; 
stroke:#000000; stroke-width:60; stroke-opacity:1; 
stroke-linecap:round; stroke-linejoin:round;">
<path d="M47000 17000
L45500 17000
" />
<path d="M47500 17180
L47500 16780
" />
<path d="M47690 17180
L47690 16780
L47910 17180
L47910 16780
" />
<path d="M46360 16880
L46140 16880
" />
<path d="M46250 16880
L46250 16480
L46210 16540
L46170 16580
L46140 16600
" />
<path d="M49500 19000
L49500 20000
" />
<path d="M49300 18300
L49280 18330
L49280 18390
L49300 18450
L49340 18490
L49380 18500
L49450 18520
L49510 18520
L49590 18500
L49620 18490
L49660 18450
L49680 18390
L49680 18350
L49660 18300
L49640 18280
L49510 18280
L49510 18350
" />
<path d="M49680 18100
L49280 18100
L49680 17880
L49280 17880
" />
<path d="M49680 17680
L49280 17680
L49280 17590
L49300 17530
L49340 17490
L49380 17480
L49450 17460
L49510 17460
L49590 17480
L49620 17490
L49660 17530
L49680 17590
L49680 17680
" />
<path d="M49020 19610
L49000 19590
L48980 19560
L48980 19460
L49000 19420
L49020 19400
L49060 19390
L49100 19390
L49150 19400
L49380 19630
L49380 19390
" />
<path d="M52000 17000
L53500 17000
" />
<path d="M50630 16780
L50710 16780
L50750 16800
L50780 16840
L50800 16910
L50800 17050
L50780 17120
L50750 17160
L50710 17180
L50630 17180
L50590 17160
L50560 17120
L50540 17050
L50540 16910
L50560 16840
L50590 16800
L50630 16780
" />
<path d="M50980 16780
L50980 17100
L50990 17140
L51010 17160
L51050 17180
L51130 17180
L51170 17160
L51180 17140
L51200 17100
L51200 16780
" />
<path d="M51340 16780
L51570 16780
" />
<path d="M51450 17180
L51450 16780
" />
<path d="M52620 16480
L52860 16480
L52730 16630
L52790 16630
L52830 16650
L52850 16670
L52860 16710
L52860 16800
L52850 16840
L52830 16860
L52790 16880
L52670 16880
L52640 16860
L52620 16840
" />
<path d="M49200 13730
L49200 14050
L49210 14090
L49230 14110
L49270 14130
L49350 14130
L49390 14110
L49400 14090
L49420 14050
L49420 13730
" />
<path d="M49820 14130
L49600 14130
" />
<path d="M49710 14130
L49710 13730
L49670 13790
L49630 13830
L49600 13850
" />
<path d="M48290 14910
L48100 14910
L48100 14510
" />
<path d="M48420 14910
L48420 14510
L48550 14800
L48680 14510
L48680 14910
" />
<path d="M48840 14510
L49100 14510
L48930 14910
" />
<path d="M49310 14680
L49270 14660
L49260 14640
L49240 14610
L49240 14590
L49260 14550
L49270 14530
L49310 14510
L49390 14510
L49430 14530
L49450 14550
L49460 14590
L49460 14610
L49450 14640
L49430 14660
L49390 14680
L49310 14680
L49270 14700
L49260 14720
L49240 14760
L49240 14830
L49260 14870
L49270 14890
L49310 14910
L49390 14910
L49430 14890
L49450 14870
L49460 14830
L49460 14760
L49450 14720
L49430 14700
L49390 14680
" />
<path d="M49840 14910
L49620 14910
" />
<path d="M49730 14910
L49730 14510
L49690 14570
L49650 14610
L49620 14630
" />
<path d="M50090 14510
L50130 14510
L50170 14530
L50190 14550
L50210 14590
L50220 14660
L50220 14760
L50210 14830
L50190 14870
L50170 14890
L50130 14910
L50090 14910
L50050 14890
L50030 14870
L50020 14830
L50000 14760
L50000 14660
L50020 14590
L50030 14550
L50050 14530
L50090 14510
" />
<path d="M50620 14870
L50600 14890
L50550 14910
L50510 14910
L50450 14890
L50410 14850
L50400 14820
L50380 14740
L50380 14680
L50400 14610
L50410 14570
L50450 14530
L50510 14510
L50550 14510
L50600 14530
L50620 14550
" />
<path d="M50740 14510
L50970 14510
" />
<path d="M50850 14910
L50850 14510
" />
</g>
<g style="fill:#000000; fill-opacity:0.0; 
stroke:#000000; stroke-width:50; stroke-opacity:1; 
stroke-linecap:round; stroke-linejoin:round;">
<path d="M48060 15560
L48040 15540
L48030 15510
L48060 15260
" />
<path d="M48180 15560
L48210 15360
" />
<path d="M48220 15260
L48210 15270
L48220 15280
L48240 15270
L48220 15260
L48220 15280
" />
<path d="M48320 15560
L48360 15260
" />
<path d="M48350 15370
L48380 15360
L48440 15360
L48470 15370
L48470 15380
L48480 15410
L48470 15500
L48460 15530
L48440 15540
L48410 15560
L48350 15560
L48320 15540
" />
<path d="M48720 15540
L48690 15560
L48630 15560
L48610 15540
L48600 15530
L48590 15500
L48600 15410
L48610 15380
L48640 15370
L48660 15360
L48720 15360
L48750 15370
" />
<path d="M48850 15560
L48880 15360
" />
<path d="M48870 15380
L48900 15370
L48920 15360
L48970 15360
L49000 15370
L49000 15400
L48980 15560
" />
<path d="M49000 15400
L49020 15370
L49050 15360
L49100 15360
L49120 15370
L49130 15400
L49110 15560
" />
<path d="M49240 15540
L49270 15560
L49320 15560
L49350 15540
L49380 15510
L49380 15500
L49360 15470
L49330 15460
L49290 15460
L49270 15440
L49260 15410
L49260 15400
L49280 15370
L49310 15360
L49350 15360
L49380 15370
" />
<path d="M49500 15530
L49510 15540
L49490 15560
L49480 15540
L49500 15530
L49490 15560
" />
<path d="M49520 15370
L49530 15380
L49510 15400
L49500 15380
L49520 15370
L49510 15400
" />
<path d="M49630 15560
L49670 15260
L49740 15260
L49790 15270
L49800 15300
L49820 15330
L49820 15380
L49820 15430
L49800 15480
L49780 15510
L49750 15540
L49700 15560
L49630 15560
" />
<path d="M49930 15560
L49970 15260
L50090 15260
L50110 15270
L50130 15280
L50130 15310
L50130 15360
L50110 15380
L50090 15400
L50070 15410
L49950 15410
" />
<path d="M50230 15470
L50370 15470
" />
<path d="M50190 15560
L50330 15260
L50390 15560
" />
<path d="M50490 15560
L50530 15260
" />
<path d="M50660 15560
L50550 15380
" />
<path d="M50700 15260
L50510 15430
" />
<path d="M50820 15280
L50830 15270
L50860 15260
L50930 15260
L50960 15270
L50970 15280
L50980 15310
L50980 15340
L50950 15380
L50760 15560
L50950 15560
" />
</g>
<g style="fill:#000000; fill-opacity:0.0; 
stroke:#000000; stroke-width:0; stroke-opacity:1; 
stroke-linecap:round; stroke-linejoin:round;">
</g>
<g style="fill:#000000; fill-opacity:0.0; 
stroke:#000000; stroke-width:60; stroke-opacity:1; 
stroke-linecap:round; stroke-linejoin:round;">
<path d="M54700 24600
L55310 24600
" />
<path d="M55010 24900
L55010 24290
" />
</g>
<g style="fill:#000000; fill-opacity:0.0; 
stroke:#000000; stroke-width:150; stroke-opacity:1; 
stroke-linecap:round; stroke-linejoin:round;">
<path d="M56498.7 26002.5 A1800 1800 0.0 0 0 54503.9 26000.7 " />
<polyline fill="none;"
points="54500,25000
56500,25000
56000,25000
56000,25000
" /> 
</g>
<g style="fill:#000000; fill-opacity:0.0; 
stroke:#000000; stroke-width:60; stroke-opacity:1; 
stroke-linecap:round; stroke-linejoin:round;">
<path d="M55500 25000
L55500 23500
" />
<path d="M55500 25700
L55500 27500
" />
<path d="M57230 25250
L57210 25270
L57140 25300
L57090 25300
L57020 25270
L56970 25220
L56950 25180
L56930 25080
L56930 25010
L56950 24920
L56970 24870
L57020 24820
L57090 24800
L57140 24800
L57210 24820
L57230 24840
" />
<path d="M57690 24800
L57450 24800
L57430 25030
L57450 25010
L57500 24990
L57620 24990
L57660 25010
L57690 25030
L57710 25080
L57710 25200
L57690 25250
L57660 25270
L57620 25300
L57500 25300
L57450 25270
L57430 25250
" />
<path d="M57210 26220
L56930 26220
" />
<path d="M57070 26220
L57070 25720
L57020 25790
L56970 25840
L56930 25860
" />
<path d="M57640 25880
L57640 26220
" />
<path d="M57430 25880
L57430 26140
L57450 26190
L57500 26220
L57570 26220
L57620 26190
L57640 26170
" />
<path d="M58050 25950
L57880 25950
" />
<path d="M57880 26220
L57880 25720
L58120 25720
" />
</g>
<g style="fill:#000000; fill-opacity:0.0; 
stroke:#000000; stroke-width:0; stroke-opacity:1; 
stroke-linecap:round; stroke-linejoin:round;">
</g>
<g style="fill:#000000; fill-opacity:0.0; 
stroke:#000000; stroke-width:60; stroke-opacity:1; 
stroke-linecap:round; stroke-linejoin:round;">
<path d="M42700 24600
L43310 24600
" />
<path d="M43010 24900
L43010 24290
" />
</g>
<g style="fill:#000000; fill-opacity:0.0; 
stroke:#000000; stroke-width:150; stroke-opacity:1; 
stroke-linecap:round; stroke-linejoin:round;">
<path d="M44498.7 26002.5 A1800 1800 0.0 0 0 42503.9 26000.7 " />
<polyline fill="none;"
points="42500,25000
44500,25000
44000,25000
44000,25000
" /> 
</g>
<g style="fill:#000000; fill-opacity:0.0; 
stroke:#000000; stroke-width:60; stroke-opacity:1; 
stroke-linecap:round; stroke-linejoin:round;">
<path d="M43500 25000
L43500 23500
" />
<path d="M43500 25700
L43500 27500
" />
<path d="M45230 25250
L45210 25270
L45140 25300
L45090 25300
L45020 25270
L44970 25220
L44950 25180
L44930 25080
L44930 25010
L44950 24920
L44970 24870
L45020 24820
L45090 24800
L45140 24800
L45210 24820
L45230 24840
" />
<path d="M45430 24840
L45450 24820
L45500 24800
L45620 24800
L45660 24820
L45690 24840
L45710 24890
L45710 24940
L45690 25010
L45400 25300
L45710 25300
" />
<path d="M45210 26220
L44930 26220
" />
<path d="M45070 26220
L45070 25720
L45020 25790
L44970 25840
L44930 25860
" />
<path d="M45640 25880
L45640 26220
" />
<path d="M45430 25880
L45430 26140
L45450 26190
L45500 26220
L45570 26220
L45620 26190
L45640 26170
" />
<path d="M46050 25950
L45880 25950
" />
<path d="M45880 26220
L45880 25720
L46120 25720
" />
<path d="M36500 17000
L45500 17000
" />
<path d="M43500 17000
L43500 23500
" />
</g>
<g style="fill:#000000; fill-opacity:0.0; 
stroke:#000000; stroke-width:0; stroke-opacity:1; 
stroke-linecap:round; stroke-linejoin:round;">
</g>
<g style="fill:#000000; fill-opacity:1.0; 
stroke:#000000; stroke-width:100; stroke-opacity:1; 
stroke-linecap:round; stroke-linejoin:round;">
<circle cx="43500" cy="17000" r="200" /> 
</g>
<g style="fill:#000000; fill-opacity:1.0; 
stroke:#000000; stroke-width:60; stroke-opacity:1; 
stroke-linecap:round; stroke-linejoin:round;">
</g>
<g style="fill:#000000; fill-opacity:0.0; 
stroke:#000000; stroke-width:60; stroke-opacity:1; 
stroke-linecap:round; stroke-linejoin:round;">
<path d="M49500 20000
L49500 29500
" />
<path d="M53500 17000
L59000 17000
" />
<path d="M55500 17000
L55500 23500
" />
</g>
<g style="fill:#000000; fill-opacity:0.0; 
stroke:#000000; stroke-width:0; stroke-opacity:1; 
stroke-linecap:round; stroke-linejoin:round;">
</g>
<g style="fill:#000000; fill-opacity:1.0; 
stroke:#000000; stroke-width:100; stroke-opacity:1; 
stroke-linecap:round; stroke-linejoin:round;">
<circle cx="55500" cy="17000" r="200" /> 
</g>
<g style="fill:#000000; fill-opacity:1.0; 
stroke:#000000; stroke-width:60; stroke-opacity:1; 
stroke-linecap:round; stroke-linejoin:round;">
</g>
<g style="fill:#000000; fill-opacity:0.0; 
stroke:#000000; stroke-width:60; stroke-opacity:1; 
stroke-linecap:round; stroke-linejoin:round;">
<path d="M43500 27500
L43500 29500
" />
<path d="M55500 27500
L55500 29500
" />
</g>
<g style="fill:#000000; fill-opacity:0.0; 
stroke:#000000; stroke-width:0; stroke-opacity:1; 
stroke-linecap:round; stroke-linejoin:round;">
</g>
<g style="fill:#000000; fill-opacity:0.0; 
stroke:#000000; stroke-width:60; stroke-opacity:1; 
stroke-linecap:round; stroke-linejoin:round;">
<rect x="32000" y="16500" width="2000" height="3000" rx="0" />
<circle cx="34300" cy="19000" r="300" /> 
<path d="M34600 19000
L36500 19000
" />
<path d="M35430 18870
L35080 18870
" />
<path d="M35260 18870
L35260 18270
L35200 18360
L35140 18410
L35080 18440
" />
<circle cx="34300" cy="17000" r="300" /> 
<path d="M34600 17000
L36500 17000
" />
<path d="M35080 16330
L35110 16300
L35170 16270
L35310 16270
L35370 16300
L35400 16330
L35430 16390
L35430 16440
L35400 16530
L35060 16870
L35430 16870
" />
<path d="M34020 14930
L34020 14530
L34170 14530
L34210 14550
L34220 14570
L34240 14610
L34240 14660
L34220 14700
L34210 14720
L34170 14740
L34020 14740
" />
<path d="M34400 14570
L34420 14550
L34450 14530
L34550 14530
L34590 14550
L34610 14570
L34620 14610
L34620 14650
L34610 14700
L34380 14930
L34620 14930
" />
<path d="M33460 15670
L33440 15690
L33390 15710
L33350 15710
L33290 15690
L33250 15650
L33240 15620
L33220 15540
L33220 15480
L33240 15410
L33250 15370
L33290 15330
L33350 15310
L33390 15310
L33440 15330
L33460 15350
" />
<path d="M33710 15310
L33790 15310
L33830 15330
L33860 15370
L33880 15440
L33880 15580
L33860 15650
L33830 15690
L33790 15710
L33710 15710
L33670 15690
L33640 15650
L33620 15580
L33620 15440
L33640 15370
L33670 15330
L33710 15310
" />
<path d="M34060 15710
L34060 15310
L34280 15710
L34280 15310
" />
<path d="M34480 15710
L34480 15310
L34700 15710
L34700 15310
" />
<path d="M34800 15750
L35100 15750
" />
<path d="M35180 15350
L35200 15330
L35230 15310
L35330 15310
L35370 15330
L35390 15350
L35400 15390
L35400 15430
L35390 15480
L35160 15710
L35400 15710
" />
<path d="M36500 19000
L37500 19000
" />
<path d="M37500 19000
L37500 29500
" />
<path d="M59000 17000
L59000 14000
" />
</g>
<g style="fill:#000000; fill-opacity:0.0; 
stroke:#000000; stroke-width:0; stroke-opacity:1; 
stroke-linecap:round; stroke-linejoin:round;">
</g>
<g style="fill:#000000; fill-opacity:0.0; 
stroke:#000000; stroke-width:60; stroke-opacity:1; 
stroke-linecap:round; stroke-linejoin:round;">
<polyline fill="none;"
points="37000,29500
37500,30000
38000,29500
37000,29500
" /> 
</g>
<g style="fill:#000000; fill-opacity:0.0; 
stroke:#000000; stroke-width:0; stroke-opacity:1; 
stroke-linecap:round; stroke-linejoin:round;">
</g>
<g style="fill:#000000; fill-opacity:0.0; 
stroke:#000000; stroke-width:60; stroke-opacity:1; 
stroke-linecap:round; stroke-linejoin:round;">
<polyline fill="none;"
points="43000,29500
43500,30000
44000,29500
43000,29500
" /> 
</g>
<g style="fill:#000000; fill-opacity:0.0; 
stroke:#000000; stroke-width:0; stroke-opacity:1; 
stroke-linecap:round; stroke-linejoin:round;">
</g>
<g style="fill:#000000; fill-opacity:0.0; 
stroke:#000000; stroke-width:60; stroke-opacity:1; 
stroke-linecap:round; stroke-linejoin:round;">
<polyline fill="none;"
points="49000,29500
49500,30000
50000,29500
49000,29500
" /> 
</g>
<g style="fill:#000000; fill-opacity:0.0; 
stroke:#000000; stroke-width:0; stroke-opacity:1; 
stroke-linecap:round; stroke-linejoin:round;">
</g>
<g style="fill:#000000; fill-opacity:0.0; 
stroke:#000000; stroke-width:60; stroke-opacity:1; 
stroke-linecap:round; stroke-linejoin:round;">
<polyline fill="none;"
points="55000,29500
55500,30000
56000,29500
55000,29500
" /> 
</g>
<g style="fill:#000000; fill-opacity:0.0; 
stroke:#000000; stroke-width:0; stroke-opacity:1; 
stroke-linecap:round; stroke-linejoin:round;">
</g>
<g style="fill:#000000; fill-opacity:0.0; 
stroke:#000000; stroke-width:60; stroke-opacity:1; 
stroke-linecap:round; stroke-linejoin:round;">
<circle cx="59000" cy="13500" r="200" /> 
<polyline fill="none;"
points="59000,14000
59000,13700
59000,13700
" /> 
</g>
<g style="fill:#000000; fill-opacity:0.0; 
stroke:#000000; stroke-width:50; stroke-opacity:1; 
stroke-linecap:round; stroke-linejoin:round;">
<path d="M58660 12580
L58760 12880
L58860 12580
" />
<path d="M59130 12850
L59120 12860
L59080 12880
L59050 12880
L59000 12860
L58980 12830
L58960 12800
L58950 12750
L58950 12700
L58960 12650
L58980 12620
L59000 12590
L59050 12580
L59080 12580
L59120 12590
L59130 12600
" />
<path d="M59430 12850
L59420 12860
L59380 12880
L59350 12880
L59300 12860
L59280 12830
L59260 12800
L59250 12750
L59250 12700
L59260 12650
L59280 12620
L59300 12590
L59350 12580
L59380 12580
L59420 12590
L59430 12600
" />
</g>
<g style="fill:#000000; fill-opacity:0.0; 
stroke:#000000; stroke-width:0; stroke-opacity:1; 
stroke-linecap:round; stroke-linejoin:round;">
</g>
<g style="fill:#000000; fill-opacity:0.0; 
stroke:#000000; stroke-width:60; stroke-opacity:1; 
stroke-linecap:round; stroke-linejoin:round;">
<circle cx="32500" cy="21500" r="310" /> 
<polyline fill="none;"
points="32800,21500
33000,21500
" /> 
<path d="M33000 21500
L34000 21500
" />
<path d="M32870 20670
L32870 20270
L33020 20270
L33060 20290
L33070 20310
L33090 20350
L33090 20400
L33070 20440
L33060 20460
L33020 20480
L32870 20480
" />
<path d="M33440 20400
L33440 20670
" />
<path d="M33340 20250
L33250 20540
L33490 20540
" />
</g>
<g style="fill:#000000; fill-opacity:0.0; 
stroke:#000000; stroke-width:0; stroke-opacity:1; 
stroke-linecap:round; stroke-linejoin:round;">
</g>
<g style="fill:#000000; fill-opacity:0.0; 
stroke:#000000; stroke-width:60; stroke-opacity:1; 
stroke-linecap:round; stroke-linejoin:round;">
<polyline fill="none;"
points="34500,29500
35000,30000
35500,29500
34500,29500
" /> 
<path d="M34000 21500
L35000 21500
" />
<path d="M35000 21500
L35000 29500
" />
<path d="M28610 21940
L28700 21970
L28840 21970
L28900 21940
L28930 21910
L28960 21860
L28960 21800
L28930 21740
L28900 21710
L28840 21690
L28730 21660
L28670 21630
L28640 21600
L28610 21540
L28610 21490
L28640 21430
L28670 21400
L28730 21370
L28870 21370
L28960 21400
" />
<path d="M29210 21970
L29210 21370
" />
<path d="M29470 21970
L29470 21660
L29440 21600
L29380 21570
L29300 21570
L29240 21600
L29210 21630
" />
<path d="M29750 21970
L29750 21570
" />
<path d="M29750 21370
L29720 21400
L29750 21430
L29780 21400
L29750 21370
L29750 21430
" />
<path d="M30270 21940
L30210 21970
L30100 21970
L30040 21940
L30010 21890
L30010 21660
L30040 21600
L30100 21570
L30210 21570
L30270 21600
L30300 21660
L30300 21710
L30010 21770
" />
<path d="M30640 21970
L30580 21940
L30550 21890
L30550 21370
" />
<path d="M31120 21970
L31120 21370
" />
<path d="M31120 21940
L31060 21970
L30950 21970
L30890 21940
L30860 21910
L30830 21860
L30830 21690
L30860 21630
L30890 21600
L30950 21570
L31060 21570
L31120 21600
" />
<path d="M42000 47500
L43500 47500
" />
<path d="M56500 47500
L58000 47500
" />
</g> 
</svg>
