G04 #@! TF.FileFunction,Legend,Top*
%FSLAX46Y46*%
G04 Gerber Fmt 4.6, Leading zero omitted, Abs format (unit mm)*
G04 Created by KiCad (PCBNEW 4.0.6) date Wed Sep  6 22:14:05 2017*
%MOMM*%
%LPD*%
G01*
G04 APERTURE LIST*
%ADD10C,0.100000*%
%ADD11C,0.150000*%
%ADD12C,0.127000*%
%ADD13C,0.099060*%
%ADD14C,0.381000*%
%ADD15C,0.304800*%
%ADD16C,0.119380*%
%ADD17C,0.114300*%
%ADD18C,0.109220*%
%ADD19C,0.254000*%
%ADD20C,0.271780*%
%ADD21C,0.203200*%
G04 APERTURE END LIST*
D10*
D11*
X112160000Y-82235000D02*
X162160000Y-82235000D01*
X162160000Y-82235000D02*
X162160000Y-122235000D01*
X162160000Y-122235000D02*
X112160000Y-122235000D01*
X112160000Y-122235000D02*
X112160000Y-82235000D01*
X126000000Y-113145000D02*
X127750000Y-111395000D01*
X126250000Y-113395000D02*
X128000000Y-111645000D01*
X128250000Y-112395000D02*
G75*
G03X128250000Y-112395000I-1250000J0D01*
G01*
X127500000Y-114895000D02*
X128000000Y-114895000D01*
X128000000Y-114895000D02*
X128500000Y-114395000D01*
X128500000Y-114395000D02*
X128500000Y-109895000D01*
X128500000Y-109895000D02*
X127500000Y-109895000D01*
X126500000Y-114895000D02*
X126000000Y-114895000D01*
X126000000Y-114895000D02*
X125500000Y-114395000D01*
X125500000Y-114395000D02*
X125500000Y-109895000D01*
X125500000Y-109895000D02*
X126500000Y-109895000D01*
D12*
X128905000Y-95631000D02*
X128905000Y-94869000D01*
X129286000Y-95250000D02*
X128524000Y-95250000D01*
X126619000Y-95504000D02*
X126619000Y-91694000D01*
X130429000Y-96266000D02*
X127381000Y-96266000D01*
X126619000Y-95504000D02*
X127381000Y-96266000D01*
X131191000Y-95504000D02*
X131191000Y-91694000D01*
X131191000Y-95504000D02*
X130429000Y-96266000D01*
X128778000Y-91948000D02*
X129032000Y-91948000D01*
X129540000Y-92075000D02*
X128270000Y-92075000D01*
X128016000Y-92202000D02*
X129794000Y-92202000D01*
X127762000Y-92329000D02*
X130048000Y-92329000D01*
X130175000Y-92456000D02*
X127635000Y-92456000D01*
X127508000Y-92583000D02*
X130302000Y-92583000D01*
X130429000Y-92710000D02*
X127381000Y-92710000D01*
X130556000Y-92837000D02*
X127254000Y-92837000D01*
X130937000Y-93980000D02*
G75*
G03X130937000Y-93980000I-2032000J0D01*
G01*
X131191000Y-91694000D02*
X126619000Y-91694000D01*
X122428000Y-116840000D02*
X120142000Y-116840000D01*
X120142000Y-116840000D02*
X120142000Y-115570000D01*
X120142000Y-115570000D02*
X122428000Y-115570000D01*
X122428000Y-115570000D02*
X122428000Y-116840000D01*
D11*
X132445000Y-105295000D02*
X130695000Y-107045000D01*
X132195000Y-105045000D02*
X130445000Y-106795000D01*
X132695000Y-106045000D02*
G75*
G03X132695000Y-106045000I-1250000J0D01*
G01*
X130945000Y-103545000D02*
X130445000Y-103545000D01*
X130445000Y-103545000D02*
X129945000Y-104045000D01*
X129945000Y-104045000D02*
X129945000Y-108545000D01*
X129945000Y-108545000D02*
X130945000Y-108545000D01*
X131945000Y-103545000D02*
X132445000Y-103545000D01*
X132445000Y-103545000D02*
X132945000Y-104045000D01*
X132945000Y-104045000D02*
X132945000Y-108545000D01*
X132945000Y-108545000D02*
X131945000Y-108545000D01*
D12*
X145415000Y-95631000D02*
X145415000Y-94869000D01*
X145796000Y-95250000D02*
X145034000Y-95250000D01*
X143129000Y-95504000D02*
X143129000Y-91694000D01*
X146939000Y-96266000D02*
X143891000Y-96266000D01*
X143129000Y-95504000D02*
X143891000Y-96266000D01*
X147701000Y-95504000D02*
X147701000Y-91694000D01*
X147701000Y-95504000D02*
X146939000Y-96266000D01*
X145288000Y-91948000D02*
X145542000Y-91948000D01*
X146050000Y-92075000D02*
X144780000Y-92075000D01*
X144526000Y-92202000D02*
X146304000Y-92202000D01*
X144272000Y-92329000D02*
X146558000Y-92329000D01*
X146685000Y-92456000D02*
X144145000Y-92456000D01*
X144018000Y-92583000D02*
X146812000Y-92583000D01*
X146939000Y-92710000D02*
X143891000Y-92710000D01*
X147066000Y-92837000D02*
X143764000Y-92837000D01*
X147447000Y-93980000D02*
G75*
G03X147447000Y-93980000I-2032000J0D01*
G01*
X147701000Y-91694000D02*
X143129000Y-91694000D01*
X144780000Y-110998000D02*
X144780000Y-108712000D01*
X144780000Y-108712000D02*
X146050000Y-108712000D01*
X146050000Y-108712000D02*
X146050000Y-110998000D01*
X146050000Y-110998000D02*
X144780000Y-110998000D01*
X149733000Y-101600000D02*
X147447000Y-101600000D01*
X147447000Y-101600000D02*
X147447000Y-100330000D01*
X147447000Y-100330000D02*
X149733000Y-100330000D01*
X149733000Y-100330000D02*
X149733000Y-101600000D01*
X149733000Y-104775000D02*
X147447000Y-104775000D01*
X147447000Y-104775000D02*
X147447000Y-103505000D01*
X147447000Y-103505000D02*
X149733000Y-103505000D01*
X149733000Y-103505000D02*
X149733000Y-104775000D01*
X152908000Y-107315000D02*
X150622000Y-107315000D01*
X150622000Y-107315000D02*
X150622000Y-106045000D01*
X150622000Y-106045000D02*
X152908000Y-106045000D01*
X152908000Y-106045000D02*
X152908000Y-107315000D01*
D11*
X122075000Y-105430000D02*
X125575000Y-105430000D01*
X125575000Y-105430000D02*
X125575000Y-107930000D01*
X125575000Y-107930000D02*
X122075000Y-107930000D01*
X122075000Y-107930000D02*
X122075000Y-105430000D01*
X130195000Y-114145000D02*
X130195000Y-110645000D01*
X130195000Y-110645000D02*
X132695000Y-110645000D01*
X132695000Y-110645000D02*
X132695000Y-114145000D01*
X132695000Y-114145000D02*
X130195000Y-114145000D01*
D13*
X144780000Y-102489000D02*
G75*
G03X144780000Y-102489000I-127000J0D01*
G01*
X144653000Y-103632000D02*
X144653000Y-102616000D01*
X144653000Y-102616000D02*
X146177000Y-102616000D01*
X146177000Y-102616000D02*
X146177000Y-103632000D01*
X146177000Y-104648000D02*
X146177000Y-105664000D01*
X146177000Y-105664000D02*
X144653000Y-105664000D01*
X144653000Y-105664000D02*
X144653000Y-104648000D01*
D14*
X120396000Y-106680000D02*
G75*
G03X120396000Y-106680000I-2286000J0D01*
G01*
D15*
X116840000Y-91440000D02*
X119380000Y-91440000D01*
X119380000Y-91440000D02*
X119380000Y-96520000D01*
X119380000Y-96520000D02*
X116840000Y-96520000D01*
X116840000Y-96520000D02*
X116840000Y-91440000D01*
D14*
X158496000Y-106680000D02*
G75*
G03X158496000Y-106680000I-2286000J0D01*
G01*
D12*
X137795000Y-110998000D02*
X137795000Y-108712000D01*
X137795000Y-108712000D02*
X139065000Y-108712000D01*
X139065000Y-108712000D02*
X139065000Y-110998000D01*
X139065000Y-110998000D02*
X137795000Y-110998000D01*
X142875000Y-110998000D02*
X142875000Y-108712000D01*
X142875000Y-108712000D02*
X144145000Y-108712000D01*
X144145000Y-108712000D02*
X144145000Y-110998000D01*
X144145000Y-110998000D02*
X142875000Y-110998000D01*
X146050000Y-99822000D02*
X146050000Y-102108000D01*
X146050000Y-102108000D02*
X144780000Y-102108000D01*
X144780000Y-102108000D02*
X144780000Y-99822000D01*
X144780000Y-99822000D02*
X146050000Y-99822000D01*
X138557000Y-94361000D02*
X138557000Y-97536000D01*
X138557000Y-97536000D02*
X140335000Y-97536000D01*
X140335000Y-97536000D02*
X140335000Y-94361000D01*
X133985000Y-94361000D02*
X133985000Y-97536000D01*
X133985000Y-97536000D02*
X135763000Y-97536000D01*
X135763000Y-97536000D02*
X135763000Y-94361000D01*
X140589000Y-88265000D02*
X140589000Y-94361000D01*
X140589000Y-94361000D02*
X133731000Y-94361000D01*
X133731000Y-94361000D02*
X133731000Y-86487000D01*
X133731000Y-86360000D02*
X140589000Y-86360000D01*
X140589000Y-86487000D02*
X140589000Y-88265000D01*
X139865100Y-104521000D02*
X139865100Y-105308400D01*
X140525500Y-105308400D02*
X139865100Y-105308400D01*
X141922500Y-104711500D02*
X142582900Y-104711500D01*
X140525500Y-106616500D02*
X139865100Y-106616500D01*
X140525500Y-104521000D02*
X139865100Y-104521000D01*
X141922500Y-106616500D02*
X142582900Y-106616500D01*
X141922500Y-104165400D02*
X141922500Y-107162600D01*
X141922500Y-107162600D02*
X140525500Y-107162600D01*
X140525500Y-107162600D02*
X140525500Y-104165400D01*
X140525500Y-104165400D02*
X141922500Y-104165400D01*
D11*
X124607143Y-112061666D02*
X124654762Y-112109285D01*
X124702381Y-112252142D01*
X124702381Y-112347380D01*
X124654762Y-112490238D01*
X124559524Y-112585476D01*
X124464286Y-112633095D01*
X124273810Y-112680714D01*
X124130952Y-112680714D01*
X123940476Y-112633095D01*
X123845238Y-112585476D01*
X123750000Y-112490238D01*
X123702381Y-112347380D01*
X123702381Y-112252142D01*
X123750000Y-112109285D01*
X123797619Y-112061666D01*
X124702381Y-111109285D02*
X124702381Y-111680714D01*
X124702381Y-111395000D02*
X123702381Y-111395000D01*
X123845238Y-111490238D01*
X123940476Y-111585476D01*
X123988095Y-111680714D01*
D16*
X131877707Y-94063396D02*
X131901535Y-94087224D01*
X131925362Y-94158707D01*
X131925362Y-94206362D01*
X131901535Y-94277845D01*
X131853880Y-94325500D01*
X131806224Y-94349328D01*
X131710914Y-94373156D01*
X131639431Y-94373156D01*
X131544120Y-94349328D01*
X131496465Y-94325500D01*
X131448810Y-94277845D01*
X131424982Y-94206362D01*
X131424982Y-94158707D01*
X131448810Y-94087224D01*
X131472638Y-94063396D01*
X131472638Y-93872776D02*
X131448810Y-93848948D01*
X131424982Y-93801293D01*
X131424982Y-93682155D01*
X131448810Y-93634499D01*
X131472638Y-93610672D01*
X131520293Y-93586844D01*
X131567948Y-93586844D01*
X131639431Y-93610672D01*
X131925362Y-93896603D01*
X131925362Y-93586844D01*
D17*
X121208800Y-116386429D02*
X121187029Y-116410619D01*
X121121715Y-116434810D01*
X121078172Y-116434810D01*
X121012857Y-116410619D01*
X120969315Y-116362238D01*
X120947543Y-116313857D01*
X120925772Y-116217095D01*
X120925772Y-116144524D01*
X120947543Y-116047762D01*
X120969315Y-115999381D01*
X121012857Y-115951000D01*
X121078172Y-115926810D01*
X121121715Y-115926810D01*
X121187029Y-115951000D01*
X121208800Y-115975190D01*
X121361200Y-115926810D02*
X121644229Y-115926810D01*
X121491829Y-116120333D01*
X121557143Y-116120333D01*
X121600686Y-116144524D01*
X121622457Y-116168714D01*
X121644229Y-116217095D01*
X121644229Y-116338048D01*
X121622457Y-116386429D01*
X121600686Y-116410619D01*
X121557143Y-116434810D01*
X121426515Y-116434810D01*
X121382972Y-116410619D01*
X121361200Y-116386429D01*
D11*
X134552143Y-106711666D02*
X134599762Y-106759285D01*
X134647381Y-106902142D01*
X134647381Y-106997380D01*
X134599762Y-107140238D01*
X134504524Y-107235476D01*
X134409286Y-107283095D01*
X134218810Y-107330714D01*
X134075952Y-107330714D01*
X133885476Y-107283095D01*
X133790238Y-107235476D01*
X133695000Y-107140238D01*
X133647381Y-106997380D01*
X133647381Y-106902142D01*
X133695000Y-106759285D01*
X133742619Y-106711666D01*
X133980714Y-105854523D02*
X134647381Y-105854523D01*
X133599762Y-106092619D02*
X134314048Y-106330714D01*
X134314048Y-105711666D01*
D16*
X148387707Y-94063396D02*
X148411535Y-94087224D01*
X148435362Y-94158707D01*
X148435362Y-94206362D01*
X148411535Y-94277845D01*
X148363880Y-94325500D01*
X148316224Y-94349328D01*
X148220914Y-94373156D01*
X148149431Y-94373156D01*
X148054120Y-94349328D01*
X148006465Y-94325500D01*
X147958810Y-94277845D01*
X147934982Y-94206362D01*
X147934982Y-94158707D01*
X147958810Y-94087224D01*
X147982638Y-94063396D01*
X147934982Y-93610672D02*
X147934982Y-93848948D01*
X148173259Y-93872776D01*
X148149431Y-93848948D01*
X148125603Y-93801293D01*
X148125603Y-93682155D01*
X148149431Y-93634499D01*
X148173259Y-93610672D01*
X148220914Y-93586844D01*
X148340052Y-93586844D01*
X148387707Y-93610672D01*
X148411535Y-93634499D01*
X148435362Y-93682155D01*
X148435362Y-93801293D01*
X148411535Y-93848948D01*
X148387707Y-93872776D01*
D17*
X145596429Y-109931200D02*
X145620619Y-109952971D01*
X145644810Y-110018285D01*
X145644810Y-110061828D01*
X145620619Y-110127143D01*
X145572238Y-110170685D01*
X145523857Y-110192457D01*
X145427095Y-110214228D01*
X145354524Y-110214228D01*
X145257762Y-110192457D01*
X145209381Y-110170685D01*
X145161000Y-110127143D01*
X145136810Y-110061828D01*
X145136810Y-110018285D01*
X145161000Y-109952971D01*
X145185190Y-109931200D01*
X145136810Y-109539314D02*
X145136810Y-109626400D01*
X145161000Y-109669943D01*
X145185190Y-109691714D01*
X145257762Y-109735257D01*
X145354524Y-109757028D01*
X145548048Y-109757028D01*
X145596429Y-109735257D01*
X145620619Y-109713485D01*
X145644810Y-109669943D01*
X145644810Y-109582857D01*
X145620619Y-109539314D01*
X145596429Y-109517543D01*
X145548048Y-109495771D01*
X145427095Y-109495771D01*
X145378714Y-109517543D01*
X145354524Y-109539314D01*
X145330333Y-109582857D01*
X145330333Y-109669943D01*
X145354524Y-109713485D01*
X145378714Y-109735257D01*
X145427095Y-109757028D01*
X148513800Y-101146429D02*
X148492029Y-101170619D01*
X148426715Y-101194810D01*
X148383172Y-101194810D01*
X148317857Y-101170619D01*
X148274315Y-101122238D01*
X148252543Y-101073857D01*
X148230772Y-100977095D01*
X148230772Y-100904524D01*
X148252543Y-100807762D01*
X148274315Y-100759381D01*
X148317857Y-100711000D01*
X148383172Y-100686810D01*
X148426715Y-100686810D01*
X148492029Y-100711000D01*
X148513800Y-100735190D01*
X148666200Y-100686810D02*
X148971000Y-100686810D01*
X148775057Y-101194810D01*
X148513800Y-104321429D02*
X148492029Y-104345619D01*
X148426715Y-104369810D01*
X148383172Y-104369810D01*
X148317857Y-104345619D01*
X148274315Y-104297238D01*
X148252543Y-104248857D01*
X148230772Y-104152095D01*
X148230772Y-104079524D01*
X148252543Y-103982762D01*
X148274315Y-103934381D01*
X148317857Y-103886000D01*
X148383172Y-103861810D01*
X148426715Y-103861810D01*
X148492029Y-103886000D01*
X148513800Y-103910190D01*
X148775057Y-104079524D02*
X148731515Y-104055333D01*
X148709743Y-104031143D01*
X148687972Y-103982762D01*
X148687972Y-103958571D01*
X148709743Y-103910190D01*
X148731515Y-103886000D01*
X148775057Y-103861810D01*
X148862143Y-103861810D01*
X148905686Y-103886000D01*
X148927457Y-103910190D01*
X148949229Y-103958571D01*
X148949229Y-103982762D01*
X148927457Y-104031143D01*
X148905686Y-104055333D01*
X148862143Y-104079524D01*
X148775057Y-104079524D01*
X148731515Y-104103714D01*
X148709743Y-104127905D01*
X148687972Y-104176286D01*
X148687972Y-104273048D01*
X148709743Y-104321429D01*
X148731515Y-104345619D01*
X148775057Y-104369810D01*
X148862143Y-104369810D01*
X148905686Y-104345619D01*
X148927457Y-104321429D01*
X148949229Y-104273048D01*
X148949229Y-104176286D01*
X148927457Y-104127905D01*
X148905686Y-104103714D01*
X148862143Y-104079524D01*
X151688800Y-106861429D02*
X151667029Y-106885619D01*
X151601715Y-106909810D01*
X151558172Y-106909810D01*
X151492857Y-106885619D01*
X151449315Y-106837238D01*
X151427543Y-106788857D01*
X151405772Y-106692095D01*
X151405772Y-106619524D01*
X151427543Y-106522762D01*
X151449315Y-106474381D01*
X151492857Y-106426000D01*
X151558172Y-106401810D01*
X151601715Y-106401810D01*
X151667029Y-106426000D01*
X151688800Y-106450190D01*
X151906515Y-106909810D02*
X151993600Y-106909810D01*
X152037143Y-106885619D01*
X152058915Y-106861429D01*
X152102457Y-106788857D01*
X152124229Y-106692095D01*
X152124229Y-106498571D01*
X152102457Y-106450190D01*
X152080686Y-106426000D01*
X152037143Y-106401810D01*
X151950057Y-106401810D01*
X151906515Y-106426000D01*
X151884743Y-106450190D01*
X151862972Y-106498571D01*
X151862972Y-106619524D01*
X151884743Y-106667905D01*
X151906515Y-106692095D01*
X151950057Y-106716286D01*
X152037143Y-106716286D01*
X152080686Y-106692095D01*
X152102457Y-106667905D01*
X152124229Y-106619524D01*
D11*
X123658334Y-104882381D02*
X123182143Y-104882381D01*
X123182143Y-103882381D01*
X124515477Y-104882381D02*
X123944048Y-104882381D01*
X124229762Y-104882381D02*
X124229762Y-103882381D01*
X124134524Y-104025238D01*
X124039286Y-104120476D01*
X123944048Y-104168095D01*
X129647381Y-112561666D02*
X129647381Y-113037857D01*
X128647381Y-113037857D01*
X128742619Y-112275952D02*
X128695000Y-112228333D01*
X128647381Y-112133095D01*
X128647381Y-111894999D01*
X128695000Y-111799761D01*
X128742619Y-111752142D01*
X128837857Y-111704523D01*
X128933095Y-111704523D01*
X129075952Y-111752142D01*
X129647381Y-112323571D01*
X129647381Y-111704523D01*
D18*
X145958862Y-104223397D02*
X145958862Y-104461673D01*
X145458482Y-104461673D01*
X145458482Y-104104258D02*
X145458482Y-103794499D01*
X145649103Y-103961292D01*
X145649103Y-103889810D01*
X145672931Y-103842154D01*
X145696759Y-103818327D01*
X145744414Y-103794499D01*
X145863552Y-103794499D01*
X145911207Y-103818327D01*
X145935035Y-103842154D01*
X145958862Y-103889810D01*
X145958862Y-104032775D01*
X145935035Y-104080431D01*
X145911207Y-104104258D01*
X145260362Y-104842914D02*
X145260362Y-105128846D01*
X145260362Y-104985880D02*
X144759982Y-104985880D01*
X144831465Y-105033535D01*
X144879120Y-105081190D01*
X144902948Y-105128846D01*
X145212707Y-104628466D02*
X145236535Y-104604638D01*
X145260362Y-104628466D01*
X145236535Y-104652294D01*
X145212707Y-104628466D01*
X145260362Y-104628466D01*
X144759982Y-104151914D02*
X144759982Y-104390190D01*
X144998259Y-104414018D01*
X144974431Y-104390190D01*
X144950603Y-104342535D01*
X144950603Y-104223397D01*
X144974431Y-104175741D01*
X144998259Y-104151914D01*
X145045914Y-104128086D01*
X145165052Y-104128086D01*
X145212707Y-104151914D01*
X145236535Y-104175741D01*
X145260362Y-104223397D01*
X145260362Y-104342535D01*
X145236535Y-104390190D01*
X145212707Y-104414018D01*
X144926776Y-103699189D02*
X145260362Y-103699189D01*
X144926776Y-103913638D02*
X145188880Y-103913638D01*
X145236535Y-103889810D01*
X145260362Y-103842155D01*
X145260362Y-103770672D01*
X145236535Y-103723017D01*
X145212707Y-103699189D01*
X145260362Y-103460913D02*
X144759982Y-103460913D01*
X144998259Y-103460913D02*
X144998259Y-103174981D01*
X145260362Y-103174981D02*
X144759982Y-103174981D01*
D19*
X117360096Y-104091619D02*
X117360096Y-103075619D01*
X117747143Y-103075619D01*
X117843905Y-103124000D01*
X117892286Y-103172381D01*
X117940667Y-103269143D01*
X117940667Y-103414286D01*
X117892286Y-103511048D01*
X117843905Y-103559429D01*
X117747143Y-103607810D01*
X117360096Y-103607810D01*
X118908286Y-104091619D02*
X118327715Y-104091619D01*
X118618001Y-104091619D02*
X118618001Y-103075619D01*
X118521239Y-103220762D01*
X118424477Y-103317524D01*
X118327715Y-103365905D01*
D20*
X122067501Y-94782398D02*
X120337761Y-94782398D01*
X120337761Y-94368257D01*
X120420130Y-94264722D01*
X120502499Y-94212954D01*
X120667236Y-94161186D01*
X120914341Y-94161186D01*
X121079079Y-94212954D01*
X121161447Y-94264722D01*
X121243816Y-94368257D01*
X121243816Y-94782398D01*
X120502499Y-93747046D02*
X120420130Y-93695278D01*
X120337761Y-93591743D01*
X120337761Y-93332905D01*
X120420130Y-93229369D01*
X120502499Y-93177602D01*
X120667236Y-93125834D01*
X120831973Y-93125834D01*
X121079079Y-93177602D01*
X122067501Y-93798813D01*
X122067501Y-93125834D01*
D15*
D19*
X155460096Y-104091619D02*
X155460096Y-103075619D01*
X155847143Y-103075619D01*
X155943905Y-103124000D01*
X155992286Y-103172381D01*
X156040667Y-103269143D01*
X156040667Y-103414286D01*
X155992286Y-103511048D01*
X155943905Y-103559429D01*
X155847143Y-103607810D01*
X155460096Y-103607810D01*
X156379334Y-103075619D02*
X157008286Y-103075619D01*
X156669620Y-103462667D01*
X156814762Y-103462667D01*
X156911524Y-103511048D01*
X156959905Y-103559429D01*
X157008286Y-103656190D01*
X157008286Y-103898095D01*
X156959905Y-103994857D01*
X156911524Y-104043238D01*
X156814762Y-104091619D01*
X156524477Y-104091619D01*
X156427715Y-104043238D01*
X156379334Y-103994857D01*
D17*
X138659810Y-109931200D02*
X138417905Y-110083600D01*
X138659810Y-110192457D02*
X138151810Y-110192457D01*
X138151810Y-110018285D01*
X138176000Y-109974743D01*
X138200190Y-109952971D01*
X138248571Y-109931200D01*
X138321143Y-109931200D01*
X138369524Y-109952971D01*
X138393714Y-109974743D01*
X138417905Y-110018285D01*
X138417905Y-110192457D01*
X138659810Y-109495771D02*
X138659810Y-109757028D01*
X138659810Y-109626400D02*
X138151810Y-109626400D01*
X138224381Y-109669943D01*
X138272762Y-109713485D01*
X138296952Y-109757028D01*
X143739810Y-109931200D02*
X143497905Y-110083600D01*
X143739810Y-110192457D02*
X143231810Y-110192457D01*
X143231810Y-110018285D01*
X143256000Y-109974743D01*
X143280190Y-109952971D01*
X143328571Y-109931200D01*
X143401143Y-109931200D01*
X143449524Y-109952971D01*
X143473714Y-109974743D01*
X143497905Y-110018285D01*
X143497905Y-110192457D01*
X143280190Y-109757028D02*
X143256000Y-109735257D01*
X143231810Y-109691714D01*
X143231810Y-109582857D01*
X143256000Y-109539314D01*
X143280190Y-109517543D01*
X143328571Y-109495771D01*
X143376952Y-109495771D01*
X143449524Y-109517543D01*
X143739810Y-109778800D01*
X143739810Y-109495771D01*
X145644810Y-101041200D02*
X145402905Y-101193600D01*
X145644810Y-101302457D02*
X145136810Y-101302457D01*
X145136810Y-101128285D01*
X145161000Y-101084743D01*
X145185190Y-101062971D01*
X145233571Y-101041200D01*
X145306143Y-101041200D01*
X145354524Y-101062971D01*
X145378714Y-101084743D01*
X145402905Y-101128285D01*
X145402905Y-101302457D01*
X145136810Y-100888800D02*
X145136810Y-100605771D01*
X145330333Y-100758171D01*
X145330333Y-100692857D01*
X145354524Y-100649314D01*
X145378714Y-100627543D01*
X145427095Y-100605771D01*
X145548048Y-100605771D01*
X145596429Y-100627543D01*
X145620619Y-100649314D01*
X145644810Y-100692857D01*
X145644810Y-100823485D01*
X145620619Y-100867028D01*
X145596429Y-100888800D01*
D21*
X136385905Y-84775524D02*
X136385905Y-85803619D01*
X136434286Y-85924571D01*
X136482667Y-85985048D01*
X136579429Y-86045524D01*
X136772952Y-86045524D01*
X136869714Y-85985048D01*
X136918095Y-85924571D01*
X136966476Y-85803619D01*
X136966476Y-84775524D01*
X137982476Y-86045524D02*
X137401905Y-86045524D01*
X137692191Y-86045524D02*
X137692191Y-84775524D01*
X137595429Y-84956952D01*
X137498667Y-85077905D01*
X137401905Y-85138381D01*
D13*
X143403018Y-105711655D02*
X143379190Y-105759310D01*
X143331535Y-105806966D01*
X143260052Y-105878449D01*
X143236224Y-105926104D01*
X143236224Y-105973759D01*
X143355362Y-105949931D02*
X143331535Y-105997587D01*
X143283880Y-106045242D01*
X143188569Y-106069070D01*
X143021776Y-106069070D01*
X142926465Y-106045242D01*
X142878810Y-105997587D01*
X142854982Y-105949931D01*
X142854982Y-105854621D01*
X142878810Y-105806966D01*
X142926465Y-105759310D01*
X143021776Y-105735483D01*
X143188569Y-105735483D01*
X143283880Y-105759310D01*
X143331535Y-105806966D01*
X143355362Y-105854621D01*
X143355362Y-105949931D01*
X143355362Y-105258930D02*
X143355362Y-105544862D01*
X143355362Y-105401896D02*
X142854982Y-105401896D01*
X142926465Y-105449551D01*
X142974120Y-105497206D01*
X142997948Y-105544862D01*
M02*
