G04 #@! TF.FileFunction,Copper,L2,Bot,Signal*
%FSLAX46Y46*%
G04 Gerber Fmt 4.6, Leading zero omitted, Abs format (unit mm)*
G04 Created by KiCad (PCBNEW 4.0.6) date Wed Sep  6 22:14:05 2017*
%MOMM*%
%LPD*%
G01*
G04 APERTURE LIST*
%ADD10C,0.100000*%
%ADD11R,2.000000X4.000000*%
%ADD12R,5.000000X2.000000*%
%ADD13C,0.600000*%
%ADD14C,0.254000*%
G04 APERTURE END LIST*
D10*
D11*
X161160000Y-86235000D03*
X161160000Y-90235000D03*
X161160000Y-94235000D03*
X161160000Y-98235000D03*
X161160000Y-102235000D03*
X161160000Y-106235000D03*
X161160000Y-110235000D03*
X161160000Y-114235000D03*
X161160000Y-118235000D03*
X113160000Y-118235000D03*
X113160000Y-114235000D03*
X113160000Y-110235000D03*
X113160000Y-106235000D03*
X113160000Y-102235000D03*
X113160000Y-98235000D03*
X113160000Y-94235000D03*
X113160000Y-90235000D03*
D12*
X114660000Y-121235000D03*
X119660000Y-121235000D03*
X124660000Y-121235000D03*
X129660000Y-121235000D03*
X134660000Y-121235000D03*
X139660000Y-121235000D03*
X144660000Y-121235000D03*
X149660000Y-121235000D03*
X154660000Y-121235000D03*
X159660000Y-121235000D03*
X159660000Y-83235000D03*
X154660000Y-83235000D03*
X149660000Y-83235000D03*
X144660000Y-83235000D03*
X139660000Y-83235000D03*
X134660000Y-83235000D03*
X129660000Y-83235000D03*
X124660000Y-83235000D03*
X119660000Y-83235000D03*
X114660000Y-83235000D03*
D11*
X113160000Y-86235000D03*
D13*
X118110000Y-90170000D03*
X119380000Y-116205000D03*
X142875000Y-102870000D03*
X139700000Y-102870000D03*
X150495000Y-100965000D03*
D14*
G36*
X120553000Y-83735000D02*
X120533000Y-83735000D01*
X120533000Y-84630250D01*
X120664750Y-84762000D01*
X123655250Y-84762000D01*
X123787000Y-84630250D01*
X123787000Y-83735000D01*
X123767000Y-83735000D01*
X123767000Y-83312000D01*
X125553000Y-83312000D01*
X125553000Y-83735000D01*
X125533000Y-83735000D01*
X125533000Y-84630250D01*
X125664750Y-84762000D01*
X128655250Y-84762000D01*
X128787000Y-84630250D01*
X128787000Y-83735000D01*
X128767000Y-83735000D01*
X128767000Y-83312000D01*
X130553000Y-83312000D01*
X130553000Y-83735000D01*
X130533000Y-83735000D01*
X130533000Y-84630250D01*
X130664750Y-84762000D01*
X133655250Y-84762000D01*
X133787000Y-84630250D01*
X133787000Y-83735000D01*
X133767000Y-83735000D01*
X133767000Y-83312000D01*
X135553000Y-83312000D01*
X135553000Y-83735000D01*
X135533000Y-83735000D01*
X135533000Y-84630250D01*
X135664750Y-84762000D01*
X138655250Y-84762000D01*
X138787000Y-84630250D01*
X138787000Y-83735000D01*
X138767000Y-83735000D01*
X138767000Y-83312000D01*
X140553000Y-83312000D01*
X140553000Y-83735000D01*
X140533000Y-83735000D01*
X140533000Y-84630250D01*
X140664750Y-84762000D01*
X143655250Y-84762000D01*
X143787000Y-84630250D01*
X143787000Y-83735000D01*
X143767000Y-83735000D01*
X143767000Y-83312000D01*
X145553000Y-83312000D01*
X145553000Y-83735000D01*
X145533000Y-83735000D01*
X145533000Y-84630250D01*
X145664750Y-84762000D01*
X148655250Y-84762000D01*
X148787000Y-84630250D01*
X148787000Y-83735000D01*
X148767000Y-83735000D01*
X148767000Y-83312000D01*
X150553000Y-83312000D01*
X150553000Y-83735000D01*
X150533000Y-83735000D01*
X150533000Y-84630250D01*
X150664750Y-84762000D01*
X153655250Y-84762000D01*
X153787000Y-84630250D01*
X153787000Y-83735000D01*
X153767000Y-83735000D01*
X153767000Y-83312000D01*
X155553000Y-83312000D01*
X155553000Y-83735000D01*
X155533000Y-83735000D01*
X155533000Y-84630250D01*
X155664750Y-84762000D01*
X158655250Y-84762000D01*
X158786998Y-84630252D01*
X158786998Y-84762000D01*
X159633000Y-84762000D01*
X159633000Y-85230250D01*
X159764750Y-85362000D01*
X160660000Y-85362000D01*
X160660000Y-84757250D01*
X160664750Y-84762000D01*
X161163000Y-84762000D01*
X161163000Y-119708000D01*
X160664750Y-119708000D01*
X160660000Y-119712750D01*
X160660000Y-119108000D01*
X159764750Y-119108000D01*
X159633000Y-119239750D01*
X159633000Y-119708000D01*
X158786998Y-119708000D01*
X158786998Y-119839748D01*
X158655250Y-119708000D01*
X155664750Y-119708000D01*
X155533000Y-119839750D01*
X155533000Y-120735000D01*
X155553000Y-120735000D01*
X155553000Y-121158000D01*
X153767000Y-121158000D01*
X153767000Y-120735000D01*
X153787000Y-120735000D01*
X153787000Y-119839750D01*
X153655250Y-119708000D01*
X150664750Y-119708000D01*
X150533000Y-119839750D01*
X150533000Y-120735000D01*
X150553000Y-120735000D01*
X150553000Y-121158000D01*
X148767000Y-121158000D01*
X148767000Y-120735000D01*
X148787000Y-120735000D01*
X148787000Y-119839750D01*
X148655250Y-119708000D01*
X145664750Y-119708000D01*
X145533000Y-119839750D01*
X145533000Y-120735000D01*
X145553000Y-120735000D01*
X145553000Y-121158000D01*
X143767000Y-121158000D01*
X143767000Y-120735000D01*
X143787000Y-120735000D01*
X143787000Y-119839750D01*
X143655250Y-119708000D01*
X140664750Y-119708000D01*
X140533000Y-119839750D01*
X140533000Y-120735000D01*
X140553000Y-120735000D01*
X140553000Y-121158000D01*
X138767000Y-121158000D01*
X138767000Y-120735000D01*
X138787000Y-120735000D01*
X138787000Y-119839750D01*
X138655250Y-119708000D01*
X135664750Y-119708000D01*
X135533000Y-119839750D01*
X135533000Y-120735000D01*
X135553000Y-120735000D01*
X135553000Y-121158000D01*
X133767000Y-121158000D01*
X133767000Y-120735000D01*
X133787000Y-120735000D01*
X133787000Y-119839750D01*
X133655250Y-119708000D01*
X130664750Y-119708000D01*
X130533000Y-119839750D01*
X130533000Y-120735000D01*
X130553000Y-120735000D01*
X130553000Y-121158000D01*
X128767000Y-121158000D01*
X128767000Y-120735000D01*
X128787000Y-120735000D01*
X128787000Y-119839750D01*
X128655250Y-119708000D01*
X125664750Y-119708000D01*
X125533000Y-119839750D01*
X125533000Y-120735000D01*
X125553000Y-120735000D01*
X125553000Y-121158000D01*
X123767000Y-121158000D01*
X123767000Y-120735000D01*
X123787000Y-120735000D01*
X123787000Y-119839750D01*
X123655250Y-119708000D01*
X120664750Y-119708000D01*
X120533000Y-119839750D01*
X120533000Y-120735000D01*
X120553000Y-120735000D01*
X120553000Y-121158000D01*
X118767000Y-121158000D01*
X118767000Y-120735000D01*
X118787000Y-120735000D01*
X118787000Y-119839750D01*
X118655250Y-119708000D01*
X115664750Y-119708000D01*
X115533002Y-119839748D01*
X115533002Y-119708000D01*
X114687000Y-119708000D01*
X114687000Y-119239750D01*
X114555250Y-119108000D01*
X113660000Y-119108000D01*
X113660000Y-119712750D01*
X113655250Y-119708000D01*
X113157000Y-119708000D01*
X113157000Y-115108000D01*
X113660000Y-115108000D01*
X113660000Y-117362000D01*
X114555250Y-117362000D01*
X114687000Y-117230250D01*
X114687000Y-115239750D01*
X159633000Y-115239750D01*
X159633000Y-117230250D01*
X159764750Y-117362000D01*
X160660000Y-117362000D01*
X160660000Y-115108000D01*
X159764750Y-115108000D01*
X159633000Y-115239750D01*
X114687000Y-115239750D01*
X114555250Y-115108000D01*
X113660000Y-115108000D01*
X113157000Y-115108000D01*
X113157000Y-111108000D01*
X113660000Y-111108000D01*
X113660000Y-113362000D01*
X114555250Y-113362000D01*
X114687000Y-113230250D01*
X114687000Y-111239750D01*
X159633000Y-111239750D01*
X159633000Y-113230250D01*
X159764750Y-113362000D01*
X160660000Y-113362000D01*
X160660000Y-111108000D01*
X159764750Y-111108000D01*
X159633000Y-111239750D01*
X114687000Y-111239750D01*
X114555250Y-111108000D01*
X113660000Y-111108000D01*
X113157000Y-111108000D01*
X113157000Y-107108000D01*
X113660000Y-107108000D01*
X113660000Y-109362000D01*
X114555250Y-109362000D01*
X114687000Y-109230250D01*
X114687000Y-107239750D01*
X159633000Y-107239750D01*
X159633000Y-109230250D01*
X159764750Y-109362000D01*
X160660000Y-109362000D01*
X160660000Y-107108000D01*
X159764750Y-107108000D01*
X159633000Y-107239750D01*
X114687000Y-107239750D01*
X114555250Y-107108000D01*
X113660000Y-107108000D01*
X113157000Y-107108000D01*
X113157000Y-103108000D01*
X113660000Y-103108000D01*
X113660000Y-105362000D01*
X114555250Y-105362000D01*
X114687000Y-105230250D01*
X114687000Y-103239750D01*
X159633000Y-103239750D01*
X159633000Y-105230250D01*
X159764750Y-105362000D01*
X160660000Y-105362000D01*
X160660000Y-103108000D01*
X159764750Y-103108000D01*
X159633000Y-103239750D01*
X114687000Y-103239750D01*
X114555250Y-103108000D01*
X113660000Y-103108000D01*
X113157000Y-103108000D01*
X113157000Y-99108000D01*
X113660000Y-99108000D01*
X113660000Y-101362000D01*
X114555250Y-101362000D01*
X114687000Y-101230250D01*
X114687000Y-99239750D01*
X159633000Y-99239750D01*
X159633000Y-101230250D01*
X159764750Y-101362000D01*
X160660000Y-101362000D01*
X160660000Y-99108000D01*
X159764750Y-99108000D01*
X159633000Y-99239750D01*
X114687000Y-99239750D01*
X114555250Y-99108000D01*
X113660000Y-99108000D01*
X113157000Y-99108000D01*
X113157000Y-95108000D01*
X113660000Y-95108000D01*
X113660000Y-97362000D01*
X114555250Y-97362000D01*
X114687000Y-97230250D01*
X114687000Y-95239750D01*
X159633000Y-95239750D01*
X159633000Y-97230250D01*
X159764750Y-97362000D01*
X160660000Y-97362000D01*
X160660000Y-95108000D01*
X159764750Y-95108000D01*
X159633000Y-95239750D01*
X114687000Y-95239750D01*
X114555250Y-95108000D01*
X113660000Y-95108000D01*
X113157000Y-95108000D01*
X113157000Y-91108000D01*
X113660000Y-91108000D01*
X113660000Y-93362000D01*
X114555250Y-93362000D01*
X114687000Y-93230250D01*
X114687000Y-91239750D01*
X159633000Y-91239750D01*
X159633000Y-93230250D01*
X159764750Y-93362000D01*
X160660000Y-93362000D01*
X160660000Y-91108000D01*
X159764750Y-91108000D01*
X159633000Y-91239750D01*
X114687000Y-91239750D01*
X114555250Y-91108000D01*
X113660000Y-91108000D01*
X113157000Y-91108000D01*
X113157000Y-87108000D01*
X113660000Y-87108000D01*
X113660000Y-89362000D01*
X114555250Y-89362000D01*
X114687000Y-89230250D01*
X114687000Y-87239750D01*
X159633000Y-87239750D01*
X159633000Y-89230250D01*
X159764750Y-89362000D01*
X160660000Y-89362000D01*
X160660000Y-87108000D01*
X159764750Y-87108000D01*
X159633000Y-87239750D01*
X114687000Y-87239750D01*
X114555250Y-87108000D01*
X113660000Y-87108000D01*
X113157000Y-87108000D01*
X113157000Y-84762000D01*
X113655250Y-84762000D01*
X113660000Y-84757250D01*
X113660000Y-85362000D01*
X114555250Y-85362000D01*
X114687000Y-85230250D01*
X114687000Y-84762000D01*
X115533002Y-84762000D01*
X115533002Y-84630252D01*
X115664750Y-84762000D01*
X118655250Y-84762000D01*
X118787000Y-84630250D01*
X118787000Y-83735000D01*
X118767000Y-83735000D01*
X118767000Y-83312000D01*
X120553000Y-83312000D01*
X120553000Y-83735000D01*
X120553000Y-83735000D01*
G37*
X120553000Y-83735000D02*
X120533000Y-83735000D01*
X120533000Y-84630250D01*
X120664750Y-84762000D01*
X123655250Y-84762000D01*
X123787000Y-84630250D01*
X123787000Y-83735000D01*
X123767000Y-83735000D01*
X123767000Y-83312000D01*
X125553000Y-83312000D01*
X125553000Y-83735000D01*
X125533000Y-83735000D01*
X125533000Y-84630250D01*
X125664750Y-84762000D01*
X128655250Y-84762000D01*
X128787000Y-84630250D01*
X128787000Y-83735000D01*
X128767000Y-83735000D01*
X128767000Y-83312000D01*
X130553000Y-83312000D01*
X130553000Y-83735000D01*
X130533000Y-83735000D01*
X130533000Y-84630250D01*
X130664750Y-84762000D01*
X133655250Y-84762000D01*
X133787000Y-84630250D01*
X133787000Y-83735000D01*
X133767000Y-83735000D01*
X133767000Y-83312000D01*
X135553000Y-83312000D01*
X135553000Y-83735000D01*
X135533000Y-83735000D01*
X135533000Y-84630250D01*
X135664750Y-84762000D01*
X138655250Y-84762000D01*
X138787000Y-84630250D01*
X138787000Y-83735000D01*
X138767000Y-83735000D01*
X138767000Y-83312000D01*
X140553000Y-83312000D01*
X140553000Y-83735000D01*
X140533000Y-83735000D01*
X140533000Y-84630250D01*
X140664750Y-84762000D01*
X143655250Y-84762000D01*
X143787000Y-84630250D01*
X143787000Y-83735000D01*
X143767000Y-83735000D01*
X143767000Y-83312000D01*
X145553000Y-83312000D01*
X145553000Y-83735000D01*
X145533000Y-83735000D01*
X145533000Y-84630250D01*
X145664750Y-84762000D01*
X148655250Y-84762000D01*
X148787000Y-84630250D01*
X148787000Y-83735000D01*
X148767000Y-83735000D01*
X148767000Y-83312000D01*
X150553000Y-83312000D01*
X150553000Y-83735000D01*
X150533000Y-83735000D01*
X150533000Y-84630250D01*
X150664750Y-84762000D01*
X153655250Y-84762000D01*
X153787000Y-84630250D01*
X153787000Y-83735000D01*
X153767000Y-83735000D01*
X153767000Y-83312000D01*
X155553000Y-83312000D01*
X155553000Y-83735000D01*
X155533000Y-83735000D01*
X155533000Y-84630250D01*
X155664750Y-84762000D01*
X158655250Y-84762000D01*
X158786998Y-84630252D01*
X158786998Y-84762000D01*
X159633000Y-84762000D01*
X159633000Y-85230250D01*
X159764750Y-85362000D01*
X160660000Y-85362000D01*
X160660000Y-84757250D01*
X160664750Y-84762000D01*
X161163000Y-84762000D01*
X161163000Y-119708000D01*
X160664750Y-119708000D01*
X160660000Y-119712750D01*
X160660000Y-119108000D01*
X159764750Y-119108000D01*
X159633000Y-119239750D01*
X159633000Y-119708000D01*
X158786998Y-119708000D01*
X158786998Y-119839748D01*
X158655250Y-119708000D01*
X155664750Y-119708000D01*
X155533000Y-119839750D01*
X155533000Y-120735000D01*
X155553000Y-120735000D01*
X155553000Y-121158000D01*
X153767000Y-121158000D01*
X153767000Y-120735000D01*
X153787000Y-120735000D01*
X153787000Y-119839750D01*
X153655250Y-119708000D01*
X150664750Y-119708000D01*
X150533000Y-119839750D01*
X150533000Y-120735000D01*
X150553000Y-120735000D01*
X150553000Y-121158000D01*
X148767000Y-121158000D01*
X148767000Y-120735000D01*
X148787000Y-120735000D01*
X148787000Y-119839750D01*
X148655250Y-119708000D01*
X145664750Y-119708000D01*
X145533000Y-119839750D01*
X145533000Y-120735000D01*
X145553000Y-120735000D01*
X145553000Y-121158000D01*
X143767000Y-121158000D01*
X143767000Y-120735000D01*
X143787000Y-120735000D01*
X143787000Y-119839750D01*
X143655250Y-119708000D01*
X140664750Y-119708000D01*
X140533000Y-119839750D01*
X140533000Y-120735000D01*
X140553000Y-120735000D01*
X140553000Y-121158000D01*
X138767000Y-121158000D01*
X138767000Y-120735000D01*
X138787000Y-120735000D01*
X138787000Y-119839750D01*
X138655250Y-119708000D01*
X135664750Y-119708000D01*
X135533000Y-119839750D01*
X135533000Y-120735000D01*
X135553000Y-120735000D01*
X135553000Y-121158000D01*
X133767000Y-121158000D01*
X133767000Y-120735000D01*
X133787000Y-120735000D01*
X133787000Y-119839750D01*
X133655250Y-119708000D01*
X130664750Y-119708000D01*
X130533000Y-119839750D01*
X130533000Y-120735000D01*
X130553000Y-120735000D01*
X130553000Y-121158000D01*
X128767000Y-121158000D01*
X128767000Y-120735000D01*
X128787000Y-120735000D01*
X128787000Y-119839750D01*
X128655250Y-119708000D01*
X125664750Y-119708000D01*
X125533000Y-119839750D01*
X125533000Y-120735000D01*
X125553000Y-120735000D01*
X125553000Y-121158000D01*
X123767000Y-121158000D01*
X123767000Y-120735000D01*
X123787000Y-120735000D01*
X123787000Y-119839750D01*
X123655250Y-119708000D01*
X120664750Y-119708000D01*
X120533000Y-119839750D01*
X120533000Y-120735000D01*
X120553000Y-120735000D01*
X120553000Y-121158000D01*
X118767000Y-121158000D01*
X118767000Y-120735000D01*
X118787000Y-120735000D01*
X118787000Y-119839750D01*
X118655250Y-119708000D01*
X115664750Y-119708000D01*
X115533002Y-119839748D01*
X115533002Y-119708000D01*
X114687000Y-119708000D01*
X114687000Y-119239750D01*
X114555250Y-119108000D01*
X113660000Y-119108000D01*
X113660000Y-119712750D01*
X113655250Y-119708000D01*
X113157000Y-119708000D01*
X113157000Y-115108000D01*
X113660000Y-115108000D01*
X113660000Y-117362000D01*
X114555250Y-117362000D01*
X114687000Y-117230250D01*
X114687000Y-115239750D01*
X159633000Y-115239750D01*
X159633000Y-117230250D01*
X159764750Y-117362000D01*
X160660000Y-117362000D01*
X160660000Y-115108000D01*
X159764750Y-115108000D01*
X159633000Y-115239750D01*
X114687000Y-115239750D01*
X114555250Y-115108000D01*
X113660000Y-115108000D01*
X113157000Y-115108000D01*
X113157000Y-111108000D01*
X113660000Y-111108000D01*
X113660000Y-113362000D01*
X114555250Y-113362000D01*
X114687000Y-113230250D01*
X114687000Y-111239750D01*
X159633000Y-111239750D01*
X159633000Y-113230250D01*
X159764750Y-113362000D01*
X160660000Y-113362000D01*
X160660000Y-111108000D01*
X159764750Y-111108000D01*
X159633000Y-111239750D01*
X114687000Y-111239750D01*
X114555250Y-111108000D01*
X113660000Y-111108000D01*
X113157000Y-111108000D01*
X113157000Y-107108000D01*
X113660000Y-107108000D01*
X113660000Y-109362000D01*
X114555250Y-109362000D01*
X114687000Y-109230250D01*
X114687000Y-107239750D01*
X159633000Y-107239750D01*
X159633000Y-109230250D01*
X159764750Y-109362000D01*
X160660000Y-109362000D01*
X160660000Y-107108000D01*
X159764750Y-107108000D01*
X159633000Y-107239750D01*
X114687000Y-107239750D01*
X114555250Y-107108000D01*
X113660000Y-107108000D01*
X113157000Y-107108000D01*
X113157000Y-103108000D01*
X113660000Y-103108000D01*
X113660000Y-105362000D01*
X114555250Y-105362000D01*
X114687000Y-105230250D01*
X114687000Y-103239750D01*
X159633000Y-103239750D01*
X159633000Y-105230250D01*
X159764750Y-105362000D01*
X160660000Y-105362000D01*
X160660000Y-103108000D01*
X159764750Y-103108000D01*
X159633000Y-103239750D01*
X114687000Y-103239750D01*
X114555250Y-103108000D01*
X113660000Y-103108000D01*
X113157000Y-103108000D01*
X113157000Y-99108000D01*
X113660000Y-99108000D01*
X113660000Y-101362000D01*
X114555250Y-101362000D01*
X114687000Y-101230250D01*
X114687000Y-99239750D01*
X159633000Y-99239750D01*
X159633000Y-101230250D01*
X159764750Y-101362000D01*
X160660000Y-101362000D01*
X160660000Y-99108000D01*
X159764750Y-99108000D01*
X159633000Y-99239750D01*
X114687000Y-99239750D01*
X114555250Y-99108000D01*
X113660000Y-99108000D01*
X113157000Y-99108000D01*
X113157000Y-95108000D01*
X113660000Y-95108000D01*
X113660000Y-97362000D01*
X114555250Y-97362000D01*
X114687000Y-97230250D01*
X114687000Y-95239750D01*
X159633000Y-95239750D01*
X159633000Y-97230250D01*
X159764750Y-97362000D01*
X160660000Y-97362000D01*
X160660000Y-95108000D01*
X159764750Y-95108000D01*
X159633000Y-95239750D01*
X114687000Y-95239750D01*
X114555250Y-95108000D01*
X113660000Y-95108000D01*
X113157000Y-95108000D01*
X113157000Y-91108000D01*
X113660000Y-91108000D01*
X113660000Y-93362000D01*
X114555250Y-93362000D01*
X114687000Y-93230250D01*
X114687000Y-91239750D01*
X159633000Y-91239750D01*
X159633000Y-93230250D01*
X159764750Y-93362000D01*
X160660000Y-93362000D01*
X160660000Y-91108000D01*
X159764750Y-91108000D01*
X159633000Y-91239750D01*
X114687000Y-91239750D01*
X114555250Y-91108000D01*
X113660000Y-91108000D01*
X113157000Y-91108000D01*
X113157000Y-87108000D01*
X113660000Y-87108000D01*
X113660000Y-89362000D01*
X114555250Y-89362000D01*
X114687000Y-89230250D01*
X114687000Y-87239750D01*
X159633000Y-87239750D01*
X159633000Y-89230250D01*
X159764750Y-89362000D01*
X160660000Y-89362000D01*
X160660000Y-87108000D01*
X159764750Y-87108000D01*
X159633000Y-87239750D01*
X114687000Y-87239750D01*
X114555250Y-87108000D01*
X113660000Y-87108000D01*
X113157000Y-87108000D01*
X113157000Y-84762000D01*
X113655250Y-84762000D01*
X113660000Y-84757250D01*
X113660000Y-85362000D01*
X114555250Y-85362000D01*
X114687000Y-85230250D01*
X114687000Y-84762000D01*
X115533002Y-84762000D01*
X115533002Y-84630252D01*
X115664750Y-84762000D01*
X118655250Y-84762000D01*
X118787000Y-84630250D01*
X118787000Y-83735000D01*
X118767000Y-83735000D01*
X118767000Y-83312000D01*
X120553000Y-83312000D01*
X120553000Y-83735000D01*
M02*
