M48
;DRILL file {KiCad 4.0.6} date Wed Sep  6 22:14:14 2017
;FORMAT={3:3/ absolute / metric / keep zeros}
FMAT,2
METRIC,TZ
T1C0.400
T2C1.000
%
G90
G05
M71
T1
X118110Y-090170
X119380Y-116205
X139700Y-102870
X142875Y-102870
X150495Y-100965
T2
X113160Y-086235
X113160Y-090235
X113160Y-094235
X113160Y-098235
X113160Y-102235
X113160Y-106235
X113160Y-110235
X113160Y-114235
X113160Y-118235
X114660Y-083235
X114660Y-121235
X119660Y-083235
X119660Y-121235
X124660Y-083235
X124660Y-121235
X129660Y-083235
X129660Y-121235
X134660Y-083235
X134660Y-121235
X139660Y-083235
X139660Y-121235
X144660Y-083235
X144660Y-121235
X149660Y-083235
X149660Y-121235
X154660Y-083235
X154660Y-121235
X159660Y-083235
X159660Y-121235
X161160Y-086235
X161160Y-090235
X161160Y-094235
X161160Y-098235
X161160Y-102235
X161160Y-106235
X161160Y-110235
X161160Y-114235
X161160Y-118235
T0
M30
